# MagicaVoxel @ Ephtracy

# group
o 

# material
mtllib bunny.mtl
usemtl palette

# normals
vn -1 0 0
vn 1 0 0
vn 0 0 1
vn 0 0 -1
vn 0 -1 0
vn 0 1 0

# texcoords
vt 0.0253906 0.5
vt 0.958984 0.5
vt 0.974609 0.5
vt 0.982422 0.5
vt 0.986328 0.5
vt 0.994141 0.5

# verts
v -0.4 0 0.4
v -0.4 0 0.2
v -0.4 0 -0.2
v -0.4 0 -0.4
v -0.4 0.1 0.4
v -0.4 0.1 0.2
v -0.4 0.1 -0.2
v -0.4 0.1 -0.4
v -0.4 0.2 0.2
v -0.4 0.2 -0.2
v -0.4 0.9 0.4
v -0.4 0.9 -0.2
v -0.4 1 -0.2
v -0.4 1 -0.3
v -0.4 1.1 -0.3
v -0.4 1.1 -0.4
v -0.3 0.9 -0.1
v -0.3 0.9 -0.2
v -0.3 1 -0.1
v -0.3 1 -0.2
v -0.2 0.3 -0.4
v -0.2 0.3 -0.5
v -0.2 0.5 -0.4
v -0.2 0.5 -0.5
v -0.1 0.3 0.5
v -0.1 0.3 0.4
v -0.1 0.6 0.5
v -0.1 0.6 0.4
v 0.1 0.9 -0.1
v 0.1 0.9 -0.4
v 0.1 1 -0.1
v 0.1 1 -0.3
v 0.1 1.1 -0.3
v 0.1 1.1 -0.4
v 0.2 0 0.4
v 0.2 0 0.2
v 0.2 0 -0.2
v 0.2 0 -0.4
v 0.2 0.1 0.4
v 0.2 0.1 0.2
v 0.2 0.1 -0.2
v 0.2 0.1 -0.4
v 0.2 0.2 0.4
v 0.2 0.2 0.2
v 0.2 0.2 -0.2
v 0.2 0.2 -0.4
v -0.2 0 0.4
v -0.2 0 0.2
v -0.2 0 -0.2
v -0.2 0 -0.4
v -0.2 0.1 0.4
v -0.2 0.1 0.2
v -0.2 0.1 -0.2
v -0.2 0.1 -0.4
v -0.2 0.2 0.4
v -0.2 0.2 0.2
v -0.2 0.2 -0.2
v -0.2 0.2 -0.4
v -0.1 0.9 -0.1
v -0.1 0.9 -0.4
v -0.1 1 -0.1
v -0.1 1 -0.3
v -0.1 1.1 -0.3
v -0.1 1.1 -0.4
v 0.1 0.3 0.5
v 0.1 0.3 0.4
v 0.1 0.6 0.5
v 0.1 0.6 0.4
v 0.2 0.3 -0.4
v 0.2 0.3 -0.5
v 0.2 0.5 -0.4
v 0.2 0.5 -0.5
v 0.3 0.9 -0.1
v 0.3 0.9 -0.2
v 0.3 1 -0.1
v 0.3 1 -0.2
v 0.4 0 0.4
v 0.4 0 0.2
v 0.4 0 -0.2
v 0.4 0 -0.4
v 0.4 0.1 0.4
v 0.4 0.1 0.2
v 0.4 0.1 -0.2
v 0.4 0.1 -0.4
v 0.4 0.2 0.2
v 0.4 0.2 -0.2
v 0.4 0.9 0.4
v 0.4 0.9 -0.2
v 0.4 1 -0.2
v 0.4 1 -0.3
v 0.4 1.1 -0.3
v 0.4 1.1 -0.4
v -0.1 0.3 0.5
v -0.1 0.6 0.5
v 0.1 0.3 0.5
v 0.1 0.6 0.5
v -0.4 0 0.4
v -0.4 0.1 0.4
v -0.4 0.9 0.4
v -0.2 0 0.4
v -0.2 0.1 0.4
v -0.2 0.2 0.4
v -0.1 0.3 0.4
v -0.1 0.6 0.4
v 0.1 0.3 0.4
v 0.1 0.6 0.4
v 0.2 0 0.4
v 0.2 0.1 0.4
v 0.2 0.2 0.4
v 0.4 0 0.4
v 0.4 0.1 0.4
v 0.4 0.9 0.4
v -0.3 0.9 -0.1
v -0.3 1 -0.1
v -0.1 0.9 -0.1
v -0.1 1 -0.1
v 0.1 0.9 -0.1
v 0.1 1 -0.1
v 0.3 0.9 -0.1
v 0.3 1 -0.1
v -0.4 0 -0.2
v -0.4 0.1 -0.2
v -0.4 0.2 -0.2
v -0.4 0.9 -0.2
v -0.4 1 -0.2
v -0.3 0.9 -0.2
v -0.3 1 -0.2
v -0.2 0 -0.2
v -0.2 0.1 -0.2
v -0.2 0.2 -0.2
v 0.2 0 -0.2
v 0.2 0.1 -0.2
v 0.2 0.2 -0.2
v 0.3 0.9 -0.2
v 0.3 1 -0.2
v 0.4 0 -0.2
v 0.4 0.1 -0.2
v 0.4 0.2 -0.2
v 0.4 0.9 -0.2
v 0.4 1 -0.2
v -0.4 1 -0.3
v -0.4 1.1 -0.3
v -0.1 1 -0.3
v -0.1 1.1 -0.3
v 0.1 1 -0.3
v 0.1 1.1 -0.3
v 0.4 1 -0.3
v 0.4 1.1 -0.3
v -0.4 0 0.2
v -0.4 0.1 0.2
v -0.4 0.2 0.2
v -0.2 0 0.2
v -0.2 0.1 0.2
v -0.2 0.2 0.2
v 0.2 0 0.2
v 0.2 0.1 0.2
v 0.2 0.2 0.2
v 0.4 0 0.2
v 0.4 0.1 0.2
v 0.4 0.2 0.2
v -0.4 0 -0.4
v -0.4 0.1 -0.4
v -0.4 1.1 -0.4
v -0.3 0.6 -0.4
v -0.3 0.8 -0.4
v -0.3 0.9 -0.4
v -0.3 1 -0.4
v -0.2 0 -0.4
v -0.2 0.1 -0.4
v -0.2 0.2 -0.4
v -0.2 0.3 -0.4
v -0.2 0.5 -0.4
v -0.2 0.7 -0.4
v -0.2 0.8 -0.4
v -0.2 0.9 -0.4
v -0.2 1 -0.4
v -0.1 0.5 -0.4
v -0.1 0.6 -0.4
v -0.1 0.7 -0.4
v -0.1 0.8 -0.4
v -0.1 0.9 -0.4
v -0.1 1.1 -0.4
v 0.1 0.5 -0.4
v 0.1 0.6 -0.4
v 0.1 0.7 -0.4
v 0.1 0.8 -0.4
v 0.1 0.9 -0.4
v 0.1 1.1 -0.4
v 0.2 0 -0.4
v 0.2 0.1 -0.4
v 0.2 0.2 -0.4
v 0.2 0.3 -0.4
v 0.2 0.5 -0.4
v 0.2 0.7 -0.4
v 0.2 0.8 -0.4
v 0.2 0.9 -0.4
v 0.2 1 -0.4
v 0.3 0.6 -0.4
v 0.3 0.8 -0.4
v 0.3 0.9 -0.4
v 0.3 1 -0.4
v 0.4 0 -0.4
v 0.4 0.1 -0.4
v 0.4 1.1 -0.4
v -0.2 0.3 -0.5
v -0.2 0.5 -0.5
v -0.1 0.4 -0.5
v -0.1 0.5 -0.5
v 0.1 0.4 -0.5
v 0.1 0.5 -0.5
v 0.2 0.3 -0.5
v 0.2 0.5 -0.5
v -0.4 0 0.4
v -0.2 0 0.4
v 0.2 0 0.4
v 0.4 0 0.4
v -0.4 0 0.2
v -0.2 0 0.2
v 0.2 0 0.2
v 0.4 0 0.2
v -0.4 0 -0.2
v -0.2 0 -0.2
v 0.2 0 -0.2
v 0.4 0 -0.2
v -0.4 0 -0.4
v -0.2 0 -0.4
v 0.2 0 -0.4
v 0.4 0 -0.4
v -0.2 0.2 0.4
v 0.2 0.2 0.4
v -0.4 0.2 0.2
v -0.2 0.2 0.2
v 0.2 0.2 0.2
v 0.4 0.2 0.2
v -0.4 0.2 -0.2
v -0.2 0.2 -0.2
v 0.2 0.2 -0.2
v 0.4 0.2 -0.2
v -0.2 0.2 -0.4
v 0.2 0.2 -0.4
v -0.1 0.3 0.5
v 0.1 0.3 0.5
v -0.1 0.3 0.4
v 0.1 0.3 0.4
v -0.2 0.3 -0.4
v 0.2 0.3 -0.4
v -0.2 0.3 -0.5
v 0.2 0.3 -0.5
v -0.2 0.5 -0.4
v -0.1 0.5 -0.4
v 0.1 0.5 -0.4
v 0.2 0.5 -0.4
v -0.2 0.5 -0.5
v -0.1 0.5 -0.5
v 0.1 0.5 -0.5
v 0.2 0.5 -0.5
v -0.1 0.6 0.5
v 0.1 0.6 0.5
v -0.1 0.6 0.4
v 0.1 0.6 0.4
v -0.4 0.9 0.4
v 0.4 0.9 0.4
v -0.3 0.9 -0.1
v -0.1 0.9 -0.1
v 0.1 0.9 -0.1
v 0.3 0.9 -0.1
v -0.4 0.9 -0.2
v -0.3 0.9 -0.2
v 0.3 0.9 -0.2
v 0.4 0.9 -0.2
v -0.1 0.9 -0.4
v 0.1 0.9 -0.4
v -0.3 1 -0.1
v -0.1 1 -0.1
v 0.1 1 -0.1
v 0.3 1 -0.1
v -0.4 1 -0.2
v -0.3 1 -0.2
v 0.3 1 -0.2
v 0.4 1 -0.2
v -0.4 1 -0.3
v -0.1 1 -0.3
v 0.1 1 -0.3
v 0.4 1 -0.3
v -0.4 1.1 -0.3
v -0.1 1.1 -0.3
v 0.1 1.1 -0.3
v 0.4 1.1 -0.3
v -0.4 1.1 -0.4
v -0.1 1.1 -0.4
v 0.1 1.1 -0.4
v 0.4 1.1 -0.4

# faces
f 5/4/1 2/4/1 1/4/1
f 6/4/1 2/4/1 5/4/1
f 7/4/1 4/4/1 3/4/1
f 8/4/1 4/4/1 7/4/1
f 9/3/1 6/3/1 5/3/1
f 10/3/1 8/3/1 7/3/1
f 11/3/1 9/3/1 5/3/1
f 11/3/1 10/3/1 9/3/1
f 12/3/1 8/3/1 10/3/1
f 12/3/1 10/3/1 11/3/1
f 13/3/1 8/3/1 12/3/1
f 14/3/1 8/3/1 13/3/1
f 15/3/1 8/3/1 14/3/1
f 16/3/1 8/3/1 15/3/1
f 19/3/1 18/3/1 17/3/1
f 20/3/1 18/3/1 19/3/1
f 23/2/1 22/2/1 21/2/1
f 24/2/1 22/2/1 23/2/1
f 27/2/1 26/2/1 25/2/1
f 28/2/1 26/2/1 27/2/1
f 31/3/1 30/3/1 29/3/1
f 32/3/1 30/3/1 31/3/1
f 33/3/1 30/3/1 32/3/1
f 34/3/1 30/3/1 33/3/1
f 39/4/1 36/4/1 35/4/1
f 40/4/1 36/4/1 39/4/1
f 41/4/1 38/4/1 37/4/1
f 42/4/1 38/4/1 41/4/1
f 43/3/1 40/3/1 39/3/1
f 44/3/1 40/3/1 43/3/1
f 45/3/1 42/3/1 41/3/1
f 46/3/1 42/3/1 45/3/1
f 47/4/2 48/4/2 51/4/2
f 51/4/2 48/4/2 52/4/2
f 49/4/2 50/4/2 53/4/2
f 53/4/2 50/4/2 54/4/2
f 51/3/2 52/3/2 55/3/2
f 55/3/2 52/3/2 56/3/2
f 53/3/2 54/3/2 57/3/2
f 57/3/2 54/3/2 58/3/2
f 59/3/2 60/3/2 61/3/2
f 61/3/2 60/3/2 62/3/2
f 62/3/2 60/3/2 63/3/2
f 63/3/2 60/3/2 64/3/2
f 65/2/2 66/2/2 67/2/2
f 67/2/2 66/2/2 68/2/2
f 69/2/2 70/2/2 71/2/2
f 71/2/2 70/2/2 72/2/2
f 73/3/2 74/3/2 75/3/2
f 75/3/2 74/3/2 76/3/2
f 77/4/2 78/4/2 81/4/2
f 81/4/2 78/4/2 82/4/2
f 79/4/2 80/4/2 83/4/2
f 83/4/2 80/4/2 84/4/2
f 81/3/2 82/3/2 85/3/2
f 83/3/2 84/3/2 86/3/2
f 81/3/2 85/3/2 87/3/2
f 85/3/2 86/3/2 87/3/2
f 86/3/2 84/3/2 88/3/2
f 87/3/2 86/3/2 88/3/2
f 88/3/2 84/3/2 89/3/2
f 89/3/2 84/3/2 90/3/2
f 90/3/2 84/3/2 91/3/2
f 91/3/2 84/3/2 92/3/2
f 95/2/3 94/2/3 93/2/3
f 96/2/3 94/2/3 95/2/3
f 100/4/3 98/4/3 97/4/3
f 101/3/3 99/3/3 98/3/3
f 101/4/3 98/4/3 100/4/3
f 102/3/3 99/3/3 101/3/3
f 103/3/3 99/3/3 102/3/3
f 104/3/3 99/3/3 103/3/3
f 105/3/3 103/3/3 102/3/3
f 106/3/3 99/3/3 104/3/3
f 109/3/3 105/3/3 102/3/3
f 109/3/3 106/3/3 105/3/3
f 110/4/3 108/4/3 107/4/3
f 111/3/3 109/3/3 108/3/3
f 111/4/3 108/4/3 110/4/3
f 112/3/3 99/3/3 106/3/3
f 112/3/3 109/3/3 111/3/3
f 112/3/3 106/3/3 109/3/3
f 115/3/3 114/3/3 113/3/3
f 116/3/3 114/3/3 115/3/3
f 119/3/3 118/3/3 117/3/3
f 120/3/3 118/3/3 119/3/3
f 126/3/3 125/3/3 124/3/3
f 127/3/3 125/3/3 126/3/3
f 128/4/3 122/4/3 121/4/3
f 129/3/3 123/3/3 122/3/3
f 129/4/3 122/4/3 128/4/3
f 130/3/3 123/3/3 129/3/3
f 136/4/3 132/4/3 131/4/3
f 137/3/3 133/3/3 132/3/3
f 137/4/3 132/4/3 136/4/3
f 138/3/3 133/3/3 137/3/3
f 139/3/3 135/3/3 134/3/3
f 140/3/3 135/3/3 139/3/3
f 143/3/3 142/3/3 141/3/3
f 144/3/3 142/3/3 143/3/3
f 147/3/3 146/3/3 145/3/3
f 148/3/3 146/3/3 147/3/3
f 149/4/4 150/4/4 152/4/4
f 150/3/4 151/3/4 153/3/4
f 152/4/4 150/4/4 153/4/4
f 153/3/4 151/3/4 154/3/4
f 155/4/4 156/4/4 158/4/4
f 156/3/4 157/3/4 159/3/4
f 158/4/4 156/4/4 159/4/4
f 159/3/4 157/3/4 160/3/4
f 162/3/4 163/3/4 164/3/4
f 164/3/4 163/3/4 165/3/4
f 165/3/4 163/3/4 166/3/4
f 166/3/4 163/3/4 167/3/4
f 161/4/4 162/4/4 168/4/4
f 162/3/4 164/3/4 169/3/4
f 168/4/4 162/4/4 169/4/4
f 169/3/4 164/3/4 170/3/4
f 170/3/4 164/3/4 171/3/4
f 171/3/4 164/3/4 172/3/4
f 164/6/4 165/6/4 173/6/4
f 165/3/4 166/3/4 174/3/4
f 173/6/4 165/6/4 174/6/4
f 166/5/4 167/5/4 175/5/4
f 174/3/4 166/3/4 175/3/4
f 167/3/4 163/3/4 176/3/4
f 175/5/4 167/5/4 176/5/4
f 172/3/4 164/3/4 177/3/4
f 164/6/4 173/6/4 178/6/4
f 177/3/4 164/3/4 178/3/4
f 173/2/4 174/2/4 179/2/4
f 178/6/4 173/6/4 179/6/4
f 174/3/4 175/3/4 180/3/4
f 179/2/4 174/2/4 180/2/4
f 175/3/4 176/3/4 180/3/4
f 180/3/4 176/3/4 181/3/4
f 176/3/4 163/3/4 182/3/4
f 181/3/4 176/3/4 182/3/4
f 178/3/4 179/3/4 183/3/4
f 180/3/4 181/3/4 183/3/4
f 179/3/4 180/3/4 183/3/4
f 177/3/4 178/3/4 183/3/4
f 183/3/4 181/3/4 184/3/4
f 184/3/4 181/3/4 185/3/4
f 185/3/4 181/3/4 186/3/4
f 186/3/4 181/3/4 187/3/4
f 170/3/4 171/3/4 191/3/4
f 191/3/4 171/3/4 192/3/4
f 183/3/4 184/3/4 193/3/4
f 184/6/4 185/6/4 194/6/4
f 185/2/4 186/2/4 194/2/4
f 186/3/4 187/3/4 195/3/4
f 194/2/4 186/2/4 195/2/4
f 187/3/4 188/3/4 195/3/4
f 195/3/4 188/3/4 196/3/4
f 196/3/4 188/3/4 197/3/4
f 191/3/4 192/3/4 198/3/4
f 192/3/4 193/3/4 198/3/4
f 193/3/4 184/3/4 198/3/4
f 184/6/4 194/6/4 198/6/4
f 194/6/4 195/6/4 198/6/4
f 190/3/4 191/3/4 198/3/4
f 195/3/4 196/3/4 199/3/4
f 198/6/4 195/6/4 199/6/4
f 196/5/4 197/5/4 200/5/4
f 199/3/4 196/3/4 200/3/4
f 197/3/4 188/3/4 201/3/4
f 200/5/4 197/5/4 201/5/4
f 189/4/4 190/4/4 202/4/4
f 199/3/4 200/3/4 203/3/4
f 202/4/4 190/4/4 203/4/4
f 198/3/4 199/3/4 203/3/4
f 200/3/4 201/3/4 203/3/4
f 190/3/4 198/3/4 203/3/4
f 201/3/4 188/3/4 204/3/4
f 203/3/4 201/3/4 204/3/4
f 205/2/4 206/2/4 207/2/4
f 207/2/4 206/2/4 208/2/4
f 205/2/4 207/2/4 209/2/4
f 207/1/4 208/1/4 209/1/4
f 209/1/4 208/1/4 210/1/4
f 205/2/4 209/2/4 211/2/4
f 209/2/4 210/2/4 211/2/4
f 211/2/4 210/2/4 212/2/4
f 217/4/5 214/4/5 213/4/5
f 218/4/5 214/4/5 217/4/5
f 219/4/5 216/4/5 215/4/5
f 220/4/5 216/4/5 219/4/5
f 225/4/5 222/4/5 221/4/5
f 226/4/5 222/4/5 225/4/5
f 227/4/5 224/4/5 223/4/5
f 228/4/5 224/4/5 227/4/5
f 232/3/5 230/3/5 229/3/5
f 233/3/5 230/3/5 232/3/5
f 235/3/5 232/3/5 231/3/5
f 235/3/5 234/3/5 233/3/5
f 235/3/5 233/3/5 232/3/5
f 236/3/5 234/3/5 235/3/5
f 237/3/5 234/3/5 236/3/5
f 238/3/5 234/3/5 237/3/5
f 239/3/5 237/3/5 236/3/5
f 240/3/5 237/3/5 239/3/5
f 243/2/5 242/2/5 241/2/5
f 244/2/5 242/2/5 243/2/5
f 247/2/5 246/2/5 245/2/5
f 248/2/5 246/2/5 247/2/5
f 249/2/6 250/2/6 253/2/6
f 250/1/6 251/1/6 254/1/6
f 253/2/6 250/2/6 254/2/6
f 251/2/6 252/2/6 255/2/6
f 254/1/6 251/1/6 255/1/6
f 255/2/6 252/2/6 256/2/6
f 257/2/6 258/2/6 259/2/6
f 259/2/6 258/2/6 260/2/6
f 261/3/6 262/3/6 263/3/6
f 263/3/6 262/3/6 264/3/6
f 264/3/6 262/3/6 265/3/6
f 265/3/6 262/3/6 266/3/6
f 261/3/6 263/3/6 267/3/6
f 267/3/6 263/3/6 268/3/6
f 266/3/6 262/3/6 269/3/6
f 269/3/6 262/3/6 270/3/6
f 264/3/6 265/3/6 271/3/6
f 271/3/6 265/3/6 272/3/6
f 273/3/6 274/3/6 278/3/6
f 275/3/6 276/3/6 279/3/6
f 277/3/6 278/3/6 281/3/6
f 278/3/6 274/3/6 282/3/6
f 281/3/6 278/3/6 282/3/6
f 279/3/6 280/3/6 283/3/6
f 275/3/6 279/3/6 283/3/6
f 283/3/6 280/3/6 284/3/6
f 285/3/6 286/3/6 289/3/6
f 289/3/6 286/3/6 290/3/6
f 287/3/6 288/3/6 291/3/6
f 291/3/6 288/3/6 292/3/6
