# MagicaVoxel @ Ephtracy

# group
o 

# material
mtllib Bush_2.mtl
usemtl palette

# normals
vn -1 0 0
vn 1 0 0
vn 0 0 1
vn 0 0 -1
vn 0 -1 0
vn 0 1 0

# texcoords
vt 0.892578 0.5
vt 0.896484 0.5
vt 0.900391 0.5
vt 0.904297 0.5

# verts
v -0.4 0.3 -0.2
v -0.4 0.3 -0.3
v -0.4 0.3 -0.4
v -0.4 0.4 -0.2
v -0.4 0.4 -0.3
v -0.4 0.4 -0.4
v -0.4 0.5 -0.3
v -0.4 0.5 -0.4
v -0.4 0.6 -0.3
v -0.4 0.6 -0.4
v -0.3 0.1 0.2
v -0.3 0.1 0.1
v -0.3 0.1 0
v -0.3 0.1 -0.1
v -0.3 0.1 -0.3
v -0.3 0.2 0.3
v -0.3 0.2 0.2
v -0.3 0.2 0
v -0.3 0.2 -0.1
v -0.3 0.2 -0.2
v -0.3 0.2 -0.3
v -0.3 0.3 0.4
v -0.3 0.3 0.3
v -0.3 0.3 0.1
v -0.3 0.3 -0.2
v -0.3 0.3 -0.3
v -0.3 0.4 0.4
v -0.3 0.4 0.3
v -0.3 0.4 0.1
v -0.3 0.5 0.4
v -0.3 0.5 0.3
v -0.3 0.5 -0.4
v -0.3 0.5 -0.5
v -0.3 0.6 -0.4
v -0.3 0.6 -0.5
v -0.2 0 0.2
v -0.2 0 0.1
v -0.2 0 -0.1
v -0.2 0 -0.2
v -0.2 0.1 0.3
v -0.2 0.1 0.2
v -0.2 0.1 0.1
v -0.2 0.1 0
v -0.2 0.1 -0.1
v -0.2 0.1 -0.2
v -0.2 0.2 0.3
v -0.2 0.2 0.2
v -0.2 0.2 0.1
v -0.2 0.2 0
v -0.2 0.2 -0.1
v -0.2 0.2 -0.2
v -0.2 0.3 -0.1
v -0.2 0.3 -0.2
v -0.1 0.2 -0.3
v -0.1 0.2 -0.4
v -0.1 0.3 -0.3
v -0.1 0.3 -0.4
v 0 0 -0.2
v 0 0 -0.3
v 0 0.1 -0.2
v 0 0.1 -0.3
v 0 0.1 -0.4
v 0 0.2 -0.3
v 0 0.2 -0.4
v 0 0.2 -0.5
v 0 0.3 -0.4
v 0 0.3 -0.5
v 0.1 0 0.2
v 0.1 0 0.1
v 0.1 0.1 0.2
v 0.1 0.1 0.1
v 0.1 0.1 0
v 0.1 0.1 -0.1
v 0.1 0.1 -0.2
v 0.1 0.2 0.3
v 0.1 0.2 0.2
v 0.1 0.2 0.1
v 0.1 0.2 0
v 0.1 0.2 -0.1
v 0.1 0.2 -0.2
v 0.1 0.3 0.3
v 0.1 0.3 0.2
v 0.2 0.1 0
v 0.2 0.1 -0.1
v 0.2 0.2 0.2
v 0.2 0.2 0.1
v 0.2 0.2 0
v 0.2 0.2 -0.1
v 0.2 0.2 -0.2
v 0.2 0.2 -0.3
v 0.2 0.3 0.4
v 0.2 0.3 0.3
v 0.2 0.3 0.2
v 0.2 0.3 0.1
v 0.2 0.3 -0.2
v 0.2 0.3 -0.3
v 0.2 0.3 -0.4
v 0.2 0.4 0.4
v 0.2 0.4 0.3
v 0.2 0.4 -0.3
v 0.2 0.4 -0.4
v 0.3 0.2 0.1
v 0.3 0.2 0
v 0.3 0.2 -0.1
v 0.3 0.2 -0.2
v 0.3 0.3 0.3
v 0.3 0.3 0.2
v 0.3 0.3 0.1
v 0.3 0.3 0
v 0.3 0.3 -0.1
v 0.3 0.3 -0.2
v 0.3 0.3 -0.3
v 0.3 0.4 0.4
v 0.3 0.4 0.3
v 0.3 0.4 0.2
v 0.3 0.4 -0.2
v 0.3 0.4 -0.3
v 0.3 0.4 -0.4
v 0.3 0.5 0.4
v 0.3 0.5 0.3
v 0.3 0.5 -0.3
v 0.3 0.5 -0.4
v 0.4 0.3 0.2
v 0.4 0.3 0.1
v 0.4 0.4 0.3
v 0.4 0.4 0.2
v 0.4 0.4 0.1
v 0.4 0.5 0.3
v 0.4 0.5 0.2
v -0.2 0.1 0
v -0.2 0.1 -0.1
v -0.2 0.2 0
v -0.2 0.2 -0.1
v -0.2 0.3 0.3
v -0.2 0.3 0.1
v -0.2 0.3 -0.2
v -0.2 0.3 -0.3
v -0.2 0.3 -0.4
v -0.2 0.4 0.4
v -0.2 0.4 0.3
v -0.2 0.4 0.1
v -0.2 0.4 -0.2
v -0.2 0.4 -0.3
v -0.2 0.5 0.4
v -0.2 0.5 0.3
v -0.2 0.5 -0.4
v -0.2 0.5 -0.5
v -0.2 0.6 -0.3
v -0.2 0.6 -0.4
v -0.2 0.6 -0.5
v -0.1 0.1 0.3
v -0.1 0.1 0.2
v -0.1 0.1 -0.1
v -0.1 0.1 -0.2
v -0.1 0.2 0.2
v -0.1 0.2 0.1
v -0.1 0.2 -0.1
v -0.1 0.2 -0.2
v -0.1 0.2 -0.3
v -0.1 0.3 0.4
v -0.1 0.3 0.3
v -0.1 0.3 0.1
v -0.1 0.3 -0.1
v -0.1 0.3 -0.2
v -0.1 0.3 -0.3
v -0.1 0.4 0.4
v -0.1 0.4 0.3
v 0 0 0.2
v 0 0 0.1
v 0 0.1 0.2
v 0 0.1 0.1
v 0 0.1 0
v 0 0.2 0.1
v 0 0.2 0
v 0.1 0.1 -0.3
v 0.1 0.1 -0.4
v 0.1 0.2 -0.3
v 0.1 0.2 -0.4
v 0.1 0.2 -0.5
v 0.1 0.3 -0.4
v 0.1 0.3 -0.5
v 0.2 0 0.2
v 0.2 0 0.1
v 0.2 0 -0.1
v 0.2 0 -0.2
v 0.2 0 -0.3
v 0.2 0.1 0.2
v 0.2 0.1 0.1
v 0.2 0.1 0
v 0.2 0.1 -0.1
v 0.2 0.1 -0.2
v 0.2 0.1 -0.3
v 0.2 0.2 0.2
v 0.2 0.2 0.1
v 0.3 0 -0.1
v 0.3 0 -0.2
v 0.3 0.1 0.1
v 0.3 0.1 0
v 0.3 0.1 -0.1
v 0.3 0.1 -0.2
v 0.3 0.1 -0.3
v 0.3 0.2 0.3
v 0.3 0.2 0.2
v 0.3 0.2 0.1
v 0.3 0.2 0
v 0.3 0.2 -0.1
v 0.3 0.2 -0.2
v 0.3 0.2 -0.3
v 0.3 0.3 0.3
v 0.3 0.3 0.2
v 0.3 0.3 -0.2
v 0.3 0.3 -0.3
v 0.4 0.2 0.2
v 0.4 0.2 0
v 0.4 0.2 -0.1
v 0.4 0.2 -0.2
v 0.4 0.2 -0.3
v 0.4 0.2 -0.4
v 0.4 0.3 0.4
v 0.4 0.3 0.3
v 0.4 0.3 0.2
v 0.4 0.3 0.1
v 0.4 0.3 0
v 0.4 0.3 -0.1
v 0.4 0.3 -0.2
v 0.4 0.3 -0.3
v 0.4 0.4 0.4
v 0.4 0.4 0.3
v 0.4 0.4 -0.2
v 0.4 0.4 -0.3
v 0.4 0.4 -0.4
v 0.4 0.5 -0.3
v 0.4 0.5 -0.4
v 0.5 0.3 0.3
v 0.5 0.3 0.1
v 0.5 0.4 0.4
v 0.5 0.4 0.3
v 0.5 0.4 0.2
v 0.5 0.4 0.1
v 0.5 0.5 0.4
v 0.5 0.5 0.3
v 0.5 0.5 0.2
v -0.3 0.3 0.4
v -0.3 0.4 0.4
v -0.3 0.5 0.4
v -0.2 0.3 0.4
v -0.2 0.4 0.4
v -0.2 0.5 0.4
v -0.1 0.3 0.4
v -0.1 0.4 0.4
v 0.2 0.3 0.4
v 0.2 0.4 0.4
v 0.3 0.3 0.4
v 0.3 0.4 0.4
v 0.3 0.5 0.4
v 0.4 0.3 0.4
v 0.4 0.4 0.4
v 0.4 0.5 0.4
v 0.5 0.4 0.4
v 0.5 0.5 0.4
v -0.3 0.2 0.3
v -0.3 0.3 0.3
v -0.2 0.1 0.3
v -0.2 0.2 0.3
v -0.2 0.3 0.3
v -0.1 0.1 0.3
v -0.1 0.3 0.3
v 0.1 0.2 0.3
v 0.1 0.3 0.3
v 0.2 0.2 0.3
v 0.2 0.3 0.3
v 0.3 0.2 0.3
v 0.3 0.3 0.3
v 0.4 0.3 0.3
v 0.4 0.4 0.3
v 0.5 0.3 0.3
v 0.5 0.4 0.3
v -0.3 0.1 0.2
v -0.3 0.2 0.2
v -0.2 0 0.2
v -0.2 0.1 0.2
v -0.2 0.2 0.2
v -0.1 0 0.2
v -0.1 0.1 0.2
v -0.1 0.2 0.2
v 0 0 0.2
v 0 0.1 0.2
v 0 0.2 0.2
v 0.1 0 0.2
v 0.1 0.1 0.2
v 0.1 0.2 0.2
v 0.2 0 0.2
v 0.2 0.1 0.2
v 0.2 0.2 0.2
v 0.3 0.2 0.2
v 0.3 0.3 0.2
v 0.4 0.2 0.2
v 0.4 0.3 0.2
v 0 0 0.1
v 0 0.1 0.1
v 0.1 0 0.1
v 0.1 0.1 0.1
v 0.2 0.1 0.1
v 0.2 0.2 0.1
v 0.3 0.1 0.1
v 0.3 0.2 0.1
v -0.3 0.1 0
v -0.3 0.2 0
v -0.2 0.1 0
v -0.2 0.2 0
v -0.2 0.1 -0.1
v -0.2 0.2 -0.1
v -0.2 0.3 -0.1
v -0.1 0.1 -0.1
v -0.1 0.2 -0.1
v -0.1 0.3 -0.1
v 0.1 0.1 -0.1
v 0.1 0.2 -0.1
v 0.2 0 -0.1
v 0.2 0.1 -0.1
v 0.2 0.2 -0.1
v 0.3 0 -0.1
v 0.3 0.1 -0.1
v -0.4 0.3 -0.2
v -0.4 0.4 -0.2
v -0.3 0.2 -0.2
v -0.3 0.3 -0.2
v -0.3 0.4 -0.2
v -0.2 0.2 -0.2
v -0.2 0.3 -0.2
v -0.2 0.4 -0.2
v -0.1 0.1 -0.2
v -0.1 0.2 -0.2
v 0 0.1 -0.2
v 0 0.2 -0.2
v 0.1 0.1 -0.2
v 0.1 0.2 -0.2
v 0.2 0.2 -0.2
v 0.2 0.3 -0.2
v 0.3 0.2 -0.2
v 0.3 0.3 -0.2
v 0.3 0.4 -0.2
v 0.4 0.3 -0.2
v 0.4 0.4 -0.2
v -0.4 0.4 -0.3
v -0.4 0.5 -0.3
v -0.4 0.6 -0.3
v -0.3 0.4 -0.3
v -0.3 0.5 -0.3
v -0.3 0.6 -0.3
v -0.2 0.4 -0.3
v -0.2 0.6 -0.3
v -0.1 0.2 -0.3
v -0.1 0.3 -0.3
v 0 0.2 -0.3
v 0 0.3 -0.3
v 0.1 0.2 -0.3
v 0.1 0.3 -0.3
v 0.2 0.2 -0.3
v 0.2 0.3 -0.3
v 0.2 0.4 -0.3
v 0.3 0.2 -0.3
v 0.3 0.3 -0.3
v 0.3 0.4 -0.3
v 0.3 0.5 -0.3
v 0.4 0.2 -0.3
v 0.4 0.3 -0.3
v 0.4 0.4 -0.3
v 0.4 0.5 -0.3
v -0.3 0.4 0.3
v -0.3 0.5 0.3
v -0.2 0.3 0.3
v -0.2 0.4 0.3
v -0.2 0.5 0.3
v -0.1 0.3 0.3
v -0.1 0.4 0.3
v 0.2 0.3 0.3
v 0.2 0.4 0.3
v 0.3 0.3 0.3
v 0.3 0.4 0.3
v 0.3 0.5 0.3
v 0.4 0.4 0.3
v 0.4 0.5 0.3
v 0.1 0.2 0.2
v 0.1 0.3 0.2
v 0.2 0.2 0.2
v 0.2 0.3 0.2
v 0.3 0.3 0.2
v 0.3 0.4 0.2
v 0.4 0.3 0.2
v 0.4 0.4 0.2
v 0.4 0.5 0.2
v 0.5 0.4 0.2
v 0.5 0.5 0.2
v -0.3 0.1 0.1
v -0.3 0.3 0.1
v -0.3 0.4 0.1
v -0.2 0.1 0.1
v -0.2 0.2 0.1
v -0.2 0.3 0.1
v -0.2 0.4 0.1
v -0.1 0.2 0.1
v -0.1 0.3 0.1
v 0 0.1 0.1
v 0 0.2 0.1
v 0.1 0.1 0.1
v 0.1 0.2 0.1
v 0.2 0.2 0.1
v 0.2 0.3 0.1
v 0.3 0.2 0.1
v 0.3 0.3 0.1
v 0.4 0.3 0.1
v 0.4 0.4 0.1
v 0.5 0.3 0.1
v 0.5 0.4 0.1
v -0.2 0.1 0
v -0.2 0.2 0
v -0.1 0.1 0
v -0.1 0.2 0
v 0 0.1 0
v 0 0.2 0
v 0.1 0.1 0
v 0.1 0.2 0
v 0.2 0.1 0
v 0.2 0.2 0
v -0.2 0 -0.2
v -0.2 0.1 -0.2
v 0 0 -0.2
v 0 0.1 -0.2
v 0.2 0 -0.2
v 0.2 0.1 -0.2
v 0.3 0 -0.2
v 0.3 0.1 -0.2
v 0.3 0.2 -0.2
v 0.3 0.3 -0.2
v 0.4 0.2 -0.2
v 0.4 0.3 -0.2
v -0.3 0.1 -0.3
v -0.3 0.2 -0.3
v -0.3 0.3 -0.3
v -0.2 0.2 -0.3
v -0.2 0.3 -0.3
v -0.1 0.2 -0.3
v -0.1 0.3 -0.3
v 0 0 -0.3
v 0 0.1 -0.3
v 0 0.2 -0.3
v 0.1 0.1 -0.3
v 0.1 0.2 -0.3
v 0.2 0 -0.3
v 0.2 0.1 -0.3
v 0.2 0.2 -0.3
v 0.3 0.1 -0.3
v 0.3 0.2 -0.3
v -0.4 0.3 -0.4
v -0.4 0.4 -0.4
v -0.4 0.5 -0.4
v -0.4 0.6 -0.4
v -0.3 0.4 -0.4
v -0.3 0.5 -0.4
v -0.3 0.6 -0.4
v -0.2 0.3 -0.4
v -0.2 0.5 -0.4
v -0.1 0.2 -0.4
v -0.1 0.3 -0.4
v 0 0.1 -0.4
v 0 0.2 -0.4
v 0 0.3 -0.4
v 0.1 0.1 -0.4
v 0.1 0.2 -0.4
v 0.1 0.3 -0.4
v 0.2 0.2 -0.4
v 0.2 0.3 -0.4
v 0.2 0.4 -0.4
v 0.3 0.3 -0.4
v 0.3 0.4 -0.4
v 0.3 0.5 -0.4
v 0.4 0.2 -0.4
v 0.4 0.4 -0.4
v 0.4 0.5 -0.4
v -0.3 0.5 -0.5
v -0.3 0.6 -0.5
v -0.2 0.5 -0.5
v -0.2 0.6 -0.5
v 0 0.2 -0.5
v 0 0.3 -0.5
v 0.1 0.2 -0.5
v 0.1 0.3 -0.5
v -0.2 0 0.2
v -0.1 0 0.2
v 0 0 0.2
v 0.1 0 0.2
v 0.2 0 0.2
v -0.2 0 0.1
v -0.1 0 0.1
v 0 0 0.1
v 0.1 0 0.1
v 0.2 0 0.1
v -0.1 0 0
v 0.1 0 0
v -0.2 0 -0.1
v -0.1 0 -0.1
v 0 0 -0.1
v 0.1 0 -0.1
v 0.2 0 -0.1
v 0.3 0 -0.1
v -0.2 0 -0.2
v 0 0 -0.2
v 0.1 0 -0.2
v 0.2 0 -0.2
v 0.3 0 -0.2
v 0 0 -0.3
v 0.2 0 -0.3
v -0.2 0.1 0.3
v -0.1 0.1 0.3
v -0.3 0.1 0.2
v -0.2 0.1 0.2
v -0.1 0.1 0.2
v 0 0.1 0.2
v 0.1 0.1 0.2
v -0.3 0.1 0.1
v -0.2 0.1 0.1
v 0 0.1 0.1
v 0.1 0.1 0.1
v 0.2 0.1 0.1
v 0.3 0.1 0.1
v -0.3 0.1 0
v -0.2 0.1 0
v 0.2 0.1 0
v 0.3 0.1 0
v -0.3 0.1 -0.1
v -0.2 0.1 -0.1
v 0.2 0.1 -0.1
v 0.3 0.1 -0.1
v -0.2 0.1 -0.2
v 0 0.1 -0.2
v 0.2 0.1 -0.2
v 0.3 0.1 -0.2
v -0.3 0.1 -0.3
v 0 0.1 -0.3
v 0.1 0.1 -0.3
v 0.2 0.1 -0.3
v 0.3 0.1 -0.3
v 0 0.1 -0.4
v 0.1 0.1 -0.4
v -0.3 0.2 0.3
v -0.2 0.2 0.3
v 0.1 0.2 0.3
v 0.2 0.2 0.3
v 0.3 0.2 0.3
v -0.3 0.2 0.2
v -0.2 0.2 0.2
v 0.1 0.2 0.2
v 0.2 0.2 0.2
v 0.3 0.2 0.2
v 0.4 0.2 0.2
v 0.2 0.2 0.1
v 0.3 0.2 0.1
v 0.3 0.2 0
v 0.4 0.2 0
v 0.3 0.2 -0.1
v 0.4 0.2 -0.1
v 0.3 0.2 -0.2
v 0.4 0.2 -0.2
v -0.1 0.2 -0.3
v 0 0.2 -0.3
v 0.1 0.2 -0.3
v 0.2 0.2 -0.3
v 0.3 0.2 -0.3
v 0.4 0.2 -0.3
v -0.1 0.2 -0.4
v 0 0.2 -0.4
v 0.1 0.2 -0.4
v 0.2 0.2 -0.4
v 0.4 0.2 -0.4
v 0 0.2 -0.5
v 0.1 0.2 -0.5
v -0.3 0.3 0.4
v -0.2 0.3 0.4
v -0.1 0.3 0.4
v 0.2 0.3 0.4
v 0.3 0.3 0.4
v 0.4 0.3 0.4
v -0.3 0.3 0.3
v -0.2 0.3 0.3
v -0.1 0.3 0.3
v 0.2 0.3 0.3
v 0.3 0.3 0.3
v 0.4 0.3 0.3
v 0.5 0.3 0.3
v 0.3 0.3 0.2
v 0.4 0.3 0.2
v 0.4 0.3 0.1
v 0.5 0.3 0.1
v -0.4 0.3 -0.2
v -0.3 0.3 -0.2
v 0.3 0.3 -0.2
v 0.4 0.3 -0.2
v -0.4 0.3 -0.3
v -0.3 0.3 -0.3
v -0.2 0.3 -0.3
v 0.3 0.3 -0.3
v 0.4 0.3 -0.3
v -0.4 0.3 -0.4
v -0.2 0.3 -0.4
v 0.4 0.4 0.4
v 0.5 0.4 0.4
v 0.4 0.4 0.3
v 0.5 0.4 0.3
v -0.3 0.5 -0.4
v -0.2 0.5 -0.4
v -0.3 0.5 -0.5
v -0.2 0.5 -0.5
v 0 0.1 0.1
v 0.1 0.1 0.1
v -0.2 0.1 0
v -0.1 0.1 0
v 0 0.1 0
v 0.1 0.1 0
v 0.2 0.1 0
v -0.2 0.1 -0.1
v -0.1 0.1 -0.1
v 0 0.1 -0.1
v 0.1 0.1 -0.1
v 0.2 0.1 -0.1
v -0.1 0.1 -0.2
v 0 0.1 -0.2
v 0.1 0.1 -0.2
v -0.1 0.2 0.2
v 0 0.2 0.2
v 0.1 0.2 0.2
v 0.2 0.2 0.2
v -0.2 0.2 0.1
v -0.1 0.2 0.1
v 0 0.2 0.1
v 0.1 0.2 0.1
v 0.2 0.2 0.1
v 0.3 0.2 0.1
v -0.3 0.2 0
v -0.2 0.2 0
v -0.1 0.2 0
v 0 0.2 0
v 0.1 0.2 0
v 0.2 0.2 0
v 0.3 0.2 0
v -0.3 0.2 -0.1
v -0.2 0.2 -0.1
v 0.1 0.2 -0.1
v 0.2 0.2 -0.1
v 0.3 0.2 -0.1
v -0.3 0.2 -0.2
v -0.2 0.2 -0.2
v -0.1 0.2 -0.2
v 0 0.2 -0.2
v 0.1 0.2 -0.2
v 0.2 0.2 -0.2
v 0.3 0.2 -0.2
v -0.1 0.2 -0.3
v 0 0.2 -0.3
v 0.1 0.2 -0.3
v 0.2 0.2 -0.3
v -0.2 0.3 0.3
v -0.1 0.3 0.3
v 0.1 0.3 0.3
v 0.2 0.3 0.3
v 0.3 0.3 0.3
v 0.1 0.3 0.2
v 0.2 0.3 0.2
v 0.3 0.3 0.2
v 0.4 0.3 0.2
v -0.2 0.3 0.1
v -0.1 0.3 0.1
v 0.2 0.3 0.1
v 0.3 0.3 0.1
v 0.4 0.3 0.1
v 0.3 0.3 0
v 0.4 0.3 0
v -0.2 0.3 -0.1
v -0.1 0.3 -0.1
v 0.3 0.3 -0.1
v 0.4 0.3 -0.1
v -0.2 0.3 -0.2
v -0.1 0.3 -0.2
v 0.2 0.3 -0.2
v 0.3 0.3 -0.2
v 0.4 0.3 -0.2
v -0.2 0.3 -0.3
v -0.1 0.3 -0.3
v 0 0.3 -0.3
v 0.1 0.3 -0.3
v 0.2 0.3 -0.3
v 0.3 0.3 -0.3
v -0.1 0.3 -0.4
v 0 0.3 -0.4
v 0.1 0.3 -0.4
v 0.2 0.3 -0.4
v 0 0.3 -0.5
v 0.1 0.3 -0.5
v -0.2 0.4 0.4
v -0.1 0.4 0.4
v 0.2 0.4 0.4
v 0.3 0.4 0.4
v -0.3 0.4 0.3
v -0.2 0.4 0.3
v -0.1 0.4 0.3
v 0.2 0.4 0.3
v 0.3 0.4 0.3
v 0.4 0.4 0.3
v 0.3 0.4 0.2
v 0.4 0.4 0.2
v 0.5 0.4 0.2
v -0.3 0.4 0.1
v -0.2 0.4 0.1
v 0.4 0.4 0.1
v 0.5 0.4 0.1
v -0.4 0.4 -0.2
v -0.3 0.4 -0.2
v -0.2 0.4 -0.2
v 0.3 0.4 -0.2
v 0.4 0.4 -0.2
v -0.4 0.4 -0.3
v -0.3 0.4 -0.3
v -0.2 0.4 -0.3
v 0.2 0.4 -0.3
v 0.3 0.4 -0.3
v 0.4 0.4 -0.3
v 0.2 0.4 -0.4
v 0.3 0.4 -0.4
v -0.3 0.5 0.4
v -0.2 0.5 0.4
v 0.3 0.5 0.4
v 0.4 0.5 0.4
v 0.5 0.5 0.4
v -0.3 0.5 0.3
v -0.2 0.5 0.3
v 0.3 0.5 0.3
v 0.4 0.5 0.3
v 0.5 0.5 0.3
v 0.4 0.5 0.2
v 0.5 0.5 0.2
v 0.3 0.5 -0.3
v 0.4 0.5 -0.3
v 0.3 0.5 -0.4
v 0.4 0.5 -0.4
v -0.4 0.6 -0.3
v -0.3 0.6 -0.3
v -0.2 0.6 -0.3
v -0.4 0.6 -0.4
v -0.3 0.6 -0.4
v -0.2 0.6 -0.4
v -0.3 0.6 -0.5
v -0.2 0.6 -0.5

# faces
f 4/3/1 2/3/1 1/3/1
f 5/2/1 3/2/1 2/2/1
f 5/3/1 2/3/1 4/3/1
f 6/2/1 3/2/1 5/2/1
f 7/4/1 6/4/1 5/4/1
f 8/4/1 6/4/1 7/4/1
f 9/1/1 8/1/1 7/1/1
f 10/1/1 8/1/1 9/1/1
f 17/2/1 12/2/1 11/2/1
f 18/3/1 14/3/1 13/3/1
f 19/2/1 15/2/1 14/2/1
f 19/3/1 14/3/1 18/3/1
f 20/2/1 15/2/1 19/2/1
f 21/2/1 15/2/1 20/2/1
f 23/2/1 17/2/1 16/2/1
f 24/2/1 12/2/1 17/2/1
f 24/2/1 17/2/1 23/2/1
f 25/4/1 21/4/1 20/4/1
f 26/4/1 21/4/1 25/4/1
f 27/1/1 23/1/1 22/1/1
f 28/3/1 24/3/1 23/3/1
f 28/1/1 23/1/1 27/1/1
f 29/3/1 24/3/1 28/3/1
f 30/4/1 28/4/1 27/4/1
f 31/4/1 28/4/1 30/4/1
f 34/1/1 33/1/1 32/1/1
f 35/1/1 33/1/1 34/1/1
f 41/1/1 37/1/1 36/1/1
f 42/3/1 38/3/1 37/3/1
f 42/1/1 37/1/1 41/1/1
f 43/3/1 38/3/1 42/3/1
f 44/2/1 39/2/1 38/2/1
f 44/3/1 38/3/1 43/3/1
f 45/2/1 39/2/1 44/2/1
f 46/2/1 41/2/1 40/2/1
f 47/2/1 41/2/1 46/2/1
f 48/3/1 43/3/1 42/3/1
f 49/3/1 43/3/1 48/3/1
f 52/1/1 51/1/1 50/1/1
f 53/1/1 51/1/1 52/1/1
f 56/2/1 55/2/1 54/2/1
f 57/2/1 55/2/1 56/2/1
f 60/2/1 59/2/1 58/2/1
f 61/2/1 59/2/1 60/2/1
f 63/3/1 62/3/1 61/3/1
f 64/3/1 62/3/1 63/3/1
f 66/3/1 65/3/1 64/3/1
f 67/3/1 65/3/1 66/3/1
f 70/4/1 69/4/1 68/4/1
f 71/4/1 69/4/1 70/4/1
f 77/1/1 72/1/1 71/1/1
f 78/1/1 72/1/1 77/1/1
f 79/3/1 74/3/1 73/3/1
f 80/3/1 74/3/1 79/3/1
f 81/2/1 76/2/1 75/2/1
f 82/2/1 76/2/1 81/2/1
f 87/1/1 84/1/1 83/1/1
f 88/1/1 84/1/1 87/1/1
f 93/3/1 86/3/1 85/3/1
f 94/3/1 86/3/1 93/3/1
f 95/3/1 90/3/1 89/3/1
f 96/3/1 90/3/1 95/3/1
f 98/2/1 92/2/1 91/2/1
f 99/2/1 92/2/1 98/2/1
f 100/3/1 97/3/1 96/3/1
f 101/3/1 97/3/1 100/3/1
f 108/4/1 103/4/1 102/4/1
f 109/3/1 104/3/1 103/3/1
f 109/4/1 103/4/1 108/4/1
f 110/4/1 105/4/1 104/4/1
f 110/3/1 104/3/1 109/3/1
f 111/4/1 105/4/1 110/4/1
f 114/3/1 107/3/1 106/3/1
f 115/3/1 107/3/1 114/3/1
f 116/1/1 112/1/1 111/1/1
f 117/1/1 112/1/1 116/1/1
f 119/4/1 114/4/1 113/4/1
f 120/4/1 114/4/1 119/4/1
f 121/3/1 118/3/1 117/3/1
f 122/3/1 118/3/1 121/3/1
f 126/2/1 124/2/1 123/2/1
f 127/2/1 124/2/1 126/2/1
f 128/1/1 126/1/1 125/1/1
f 129/1/1 126/1/1 128/1/1
f 130/3/2 131/3/2 132/3/2
f 132/3/2 131/3/2 133/3/2
f 134/3/2 135/3/2 140/3/2
f 140/3/2 135/3/2 141/3/2
f 136/1/2 137/1/2 142/1/2
f 137/2/2 138/2/2 143/2/2
f 142/1/2 137/1/2 143/1/2
f 139/4/2 140/4/2 144/4/2
f 144/4/2 140/4/2 145/4/2
f 143/2/2 138/2/2 146/2/2
f 143/2/2 146/2/2 148/2/2
f 146/1/2 147/1/2 149/1/2
f 148/2/2 146/2/2 149/2/2
f 149/1/2 147/1/2 150/1/2
f 151/2/2 152/2/2 155/2/2
f 153/4/2 154/4/2 157/4/2
f 157/4/2 154/4/2 158/4/2
f 155/2/2 156/2/2 161/2/2
f 151/2/2 155/2/2 161/2/2
f 161/2/2 156/2/2 162/2/2
f 157/1/2 158/1/2 163/1/2
f 158/2/2 159/2/2 164/2/2
f 163/1/2 158/1/2 164/1/2
f 164/2/2 159/2/2 165/2/2
f 160/4/2 161/4/2 166/4/2
f 166/4/2 161/4/2 167/4/2
f 168/2/2 169/2/2 170/2/2
f 170/2/2 169/2/2 171/2/2
f 171/2/2 172/2/2 173/2/2
f 173/2/2 172/2/2 174/2/2
f 175/3/2 176/3/2 177/3/2
f 177/3/2 176/3/2 178/3/2
f 178/3/2 179/3/2 180/3/2
f 180/3/2 179/3/2 181/3/2
f 182/4/2 183/4/2 187/4/2
f 183/2/2 184/2/2 188/2/2
f 187/4/2 183/4/2 188/4/2
f 188/2/2 184/2/2 189/2/2
f 189/2/2 184/2/2 190/2/2
f 185/2/2 186/2/2 191/2/2
f 191/2/2 186/2/2 192/2/2
f 187/2/2 188/2/2 193/2/2
f 193/2/2 188/2/2 194/2/2
f 195/2/2 196/2/2 199/2/2
f 199/2/2 196/2/2 200/2/2
f 197/2/2 198/2/2 204/2/2
f 198/1/2 199/1/2 205/1/2
f 204/2/2 198/2/2 205/2/2
f 199/1/2 200/1/2 205/1/2
f 205/1/2 200/1/2 206/1/2
f 200/2/2 201/2/2 207/2/2
f 206/1/2 200/1/2 207/1/2
f 207/2/2 201/2/2 208/2/2
f 202/1/2 203/1/2 209/1/2
f 209/1/2 203/1/2 210/1/2
f 207/3/2 208/3/2 211/3/2
f 211/3/2 208/3/2 212/3/2
f 213/4/2 214/4/2 221/4/2
f 221/4/2 214/4/2 222/4/2
f 214/3/2 215/3/2 223/3/2
f 222/4/2 214/4/2 223/4/2
f 215/4/2 216/4/2 224/4/2
f 223/3/2 215/3/2 224/3/2
f 224/4/2 216/4/2 225/4/2
f 217/2/2 218/2/2 226/2/2
f 219/4/2 220/4/2 227/4/2
f 227/4/2 220/4/2 228/4/2
f 225/1/2 226/1/2 229/1/2
f 226/2/2 218/2/2 230/2/2
f 229/1/2 226/1/2 230/1/2
f 230/2/2 218/2/2 231/2/2
f 230/3/2 231/3/2 232/3/2
f 232/3/2 231/3/2 233/3/2
f 234/2/2 235/2/2 237/2/2
f 237/2/2 235/2/2 238/2/2
f 238/2/2 235/2/2 239/2/2
f 236/2/2 237/2/2 240/2/2
f 237/1/2 238/1/2 241/1/2
f 240/2/2 237/2/2 241/2/2
f 241/1/2 238/1/2 242/1/2
f 246/1/3 244/1/3 243/1/3
f 247/4/3 245/4/3 244/4/3
f 247/1/3 244/1/3 246/1/3
f 248/4/3 245/4/3 247/4/3
f 249/4/3 247/4/3 246/4/3
f 250/4/3 247/4/3 249/4/3
f 253/2/3 252/2/3 251/2/3
f 254/2/3 252/2/3 253/2/3
f 256/4/3 254/4/3 253/4/3
f 256/4/3 255/4/3 254/4/3
f 257/4/3 255/4/3 256/4/3
f 258/4/3 255/4/3 257/4/3
f 259/2/3 258/2/3 257/2/3
f 260/2/3 258/2/3 259/2/3
f 264/2/3 262/2/3 261/2/3
f 265/2/3 262/2/3 264/2/3
f 266/2/3 264/2/3 263/2/3
f 266/2/3 265/2/3 264/2/3
f 267/2/3 265/2/3 266/2/3
f 270/2/3 269/2/3 268/2/3
f 271/2/3 269/2/3 270/2/3
f 272/1/3 271/1/3 270/1/3
f 273/1/3 271/1/3 272/1/3
f 276/2/3 275/2/3 274/2/3
f 277/2/3 275/2/3 276/2/3
f 281/2/3 279/2/3 278/2/3
f 282/2/3 279/2/3 281/2/3
f 283/1/3 281/1/3 280/1/3
f 284/1/3 281/1/3 283/1/3
f 286/2/3 284/2/3 283/2/3
f 286/2/3 285/2/3 284/2/3
f 287/2/3 285/2/3 286/2/3
f 288/2/3 285/2/3 287/2/3
f 290/1/3 288/1/3 287/1/3
f 291/1/3 288/1/3 290/1/3
f 292/4/3 290/4/3 289/4/3
f 293/2/3 291/2/3 290/2/3
f 293/4/3 290/4/3 292/4/3
f 294/2/3 291/2/3 293/2/3
f 297/4/3 296/4/3 295/4/3
f 298/4/3 296/4/3 297/4/3
f 301/2/3 300/2/3 299/2/3
f 302/2/3 300/2/3 301/2/3
f 305/2/3 304/2/3 303/2/3
f 306/2/3 304/2/3 305/2/3
f 309/3/3 308/3/3 307/3/3
f 310/3/3 308/3/3 309/3/3
f 314/4/3 312/4/3 311/4/3
f 315/1/3 313/1/3 312/1/3
f 315/4/3 312/4/3 314/4/3
f 316/1/3 313/1/3 315/1/3
f 320/3/3 318/3/3 317/3/3
f 321/3/3 318/3/3 320/3/3
f 322/2/3 320/2/3 319/2/3
f 323/2/3 320/2/3 322/2/3
f 327/3/3 325/3/3 324/3/3
f 328/3/3 325/3/3 327/3/3
f 329/4/3 327/4/3 326/4/3
f 330/1/3 328/1/3 327/1/3
f 330/4/3 327/4/3 329/4/3
f 331/1/3 328/1/3 330/1/3
f 334/2/3 333/2/3 332/2/3
f 335/2/3 333/2/3 334/2/3
f 336/3/3 335/3/3 334/3/3
f 337/3/3 335/3/3 336/3/3
f 340/3/3 339/3/3 338/3/3
f 341/3/3 339/3/3 340/3/3
f 343/1/3 342/1/3 341/1/3
f 344/1/3 342/1/3 343/1/3
f 348/4/3 346/4/3 345/4/3
f 349/1/3 347/1/3 346/1/3
f 349/4/3 346/4/3 348/4/3
f 350/1/3 347/1/3 349/1/3
f 351/2/3 349/2/3 348/2/3
f 351/2/3 350/2/3 349/2/3
f 352/2/3 350/2/3 351/2/3
f 355/2/3 354/2/3 353/2/3
f 356/2/3 354/2/3 355/2/3
f 357/1/3 356/1/3 355/1/3
f 358/1/3 356/1/3 357/1/3
f 359/3/3 358/3/3 357/3/3
f 360/3/3 358/3/3 359/3/3
f 363/3/3 361/3/3 360/3/3
f 364/3/3 361/3/3 363/3/3
f 366/2/3 363/2/3 362/2/3
f 367/2/3 363/2/3 366/2/3
f 368/3/3 365/3/3 364/3/3
f 369/3/3 365/3/3 368/3/3
f 370/4/4 371/4/4 373/4/4
f 373/4/4 371/4/4 374/4/4
f 372/4/4 373/4/4 375/4/4
f 375/4/4 373/4/4 376/4/4
f 377/2/4 378/2/4 379/2/4
f 379/2/4 378/2/4 380/2/4
f 380/4/4 381/4/4 382/4/4
f 382/4/4 381/4/4 383/4/4
f 384/2/4 385/2/4 386/2/4
f 386/2/4 385/2/4 387/2/4
f 388/3/4 389/3/4 390/3/4
f 390/3/4 389/3/4 391/3/4
f 391/1/4 392/1/4 393/1/4
f 393/1/4 392/1/4 394/1/4
f 395/2/4 396/2/4 398/2/4
f 398/2/4 396/2/4 399/2/4
f 396/3/4 397/3/4 400/3/4
f 399/2/4 396/2/4 400/2/4
f 400/3/4 397/3/4 401/3/4
f 399/2/4 400/2/4 402/2/4
f 402/2/4 400/2/4 403/2/4
f 404/1/4 405/1/4 406/1/4
f 406/1/4 405/1/4 407/1/4
f 408/3/4 409/3/4 410/3/4
f 410/3/4 409/3/4 411/3/4
f 412/2/4 413/2/4 414/2/4
f 414/2/4 413/2/4 415/2/4
f 416/3/4 417/3/4 418/3/4
f 418/3/4 417/3/4 419/3/4
f 418/2/4 419/2/4 420/2/4
f 420/2/4 419/2/4 421/2/4
f 422/1/4 423/1/4 424/1/4
f 424/1/4 423/1/4 425/1/4
f 426/2/4 427/2/4 428/2/4
f 428/2/4 427/2/4 429/2/4
f 430/2/4 431/2/4 432/2/4
f 432/2/4 431/2/4 433/2/4
f 434/4/4 435/4/4 436/4/4
f 436/4/4 435/4/4 437/4/4
f 438/2/4 439/2/4 441/2/4
f 439/4/4 440/4/4 441/4/4
f 441/4/4 440/4/4 442/4/4
f 438/2/4 441/2/4 443/2/4
f 441/2/4 442/2/4 443/2/4
f 443/2/4 442/2/4 444/2/4
f 438/2/4 443/2/4 446/2/4
f 446/2/4 443/2/4 447/2/4
f 445/2/4 446/2/4 448/2/4
f 445/2/4 448/2/4 450/2/4
f 448/1/4 449/1/4 451/1/4
f 450/2/4 448/2/4 451/2/4
f 451/1/4 449/1/4 452/1/4
f 451/2/4 452/2/4 453/2/4
f 453/2/4 452/2/4 454/2/4
f 455/2/4 456/2/4 459/2/4
f 456/4/4 457/4/4 459/4/4
f 457/1/4 458/1/4 460/1/4
f 459/4/4 457/4/4 460/4/4
f 460/1/4 458/1/4 461/1/4
f 455/2/4 459/2/4 462/2/4
f 459/2/4 460/2/4 462/2/4
f 462/2/4 460/2/4 463/2/4
f 464/2/4 465/2/4 467/2/4
f 467/2/4 465/2/4 468/2/4
f 466/3/4 467/3/4 469/3/4
f 469/3/4 467/3/4 470/3/4
f 470/3/4 471/3/4 472/3/4
f 472/3/4 471/3/4 473/3/4
f 472/2/4 473/2/4 475/2/4
f 473/3/4 474/3/4 475/3/4
f 475/3/4 474/3/4 476/3/4
f 472/2/4 475/2/4 478/2/4
f 475/2/4 476/2/4 478/2/4
f 476/3/4 477/3/4 479/3/4
f 478/2/4 476/2/4 479/2/4
f 479/3/4 477/3/4 480/3/4
f 481/1/4 482/1/4 483/1/4
f 483/1/4 482/1/4 484/1/4
f 485/3/4 486/3/4 487/3/4
f 487/3/4 486/3/4 488/3/4
f 494/1/5 490/1/5 489/1/5
f 495/2/5 491/2/5 490/2/5
f 495/1/5 490/1/5 494/1/5
f 496/2/5 491/2/5 495/2/5
f 497/4/5 493/4/5 492/4/5
f 498/4/5 493/4/5 497/4/5
f 499/2/5 496/2/5 495/2/5
f 499/3/5 495/3/5 494/3/5
f 499/2/5 498/2/5 497/2/5
f 499/2/5 497/2/5 496/2/5
f 500/2/5 498/2/5 499/2/5
f 501/3/5 499/3/5 494/3/5
f 502/1/5 500/1/5 499/1/5
f 502/3/5 499/3/5 501/3/5
f 503/1/5 500/1/5 502/1/5
f 504/2/5 498/2/5 500/2/5
f 504/1/5 500/1/5 503/1/5
f 505/2/5 498/2/5 504/2/5
f 507/2/5 503/2/5 502/2/5
f 507/2/5 502/2/5 501/2/5
f 508/3/5 504/3/5 503/3/5
f 508/2/5 503/2/5 507/2/5
f 509/2/5 505/2/5 504/2/5
f 509/3/5 504/3/5 508/3/5
f 509/2/5 506/2/5 505/2/5
f 510/2/5 506/2/5 509/2/5
f 511/2/5 506/2/5 510/2/5
f 512/2/5 509/2/5 508/2/5
f 512/2/5 510/2/5 509/2/5
f 513/2/5 510/2/5 512/2/5
f 517/2/5 515/2/5 514/2/5
f 518/2/5 515/2/5 517/2/5
f 521/2/5 517/2/5 516/2/5
f 522/2/5 517/2/5 521/2/5
f 523/1/5 520/1/5 519/1/5
f 524/1/5 520/1/5 523/1/5
f 529/2/5 526/2/5 525/2/5
f 530/2/5 526/2/5 529/2/5
f 531/3/5 528/3/5 527/3/5
f 532/3/5 528/3/5 531/3/5
f 533/1/5 530/1/5 529/1/5
f 534/1/5 530/1/5 533/1/5
f 535/2/5 532/2/5 531/2/5
f 539/2/5 535/2/5 531/2/5
f 539/2/5 536/2/5 535/2/5
f 540/2/5 536/2/5 539/2/5
f 542/2/5 538/2/5 537/2/5
f 543/2/5 538/2/5 542/2/5
f 544/3/5 541/3/5 540/3/5
f 545/3/5 541/3/5 544/3/5
f 551/2/5 547/2/5 546/2/5
f 552/2/5 547/2/5 551/2/5
f 553/2/5 549/2/5 548/2/5
f 554/1/5 550/1/5 549/1/5
f 554/2/5 549/2/5 553/2/5
f 555/1/5 550/1/5 554/1/5
f 557/3/5 555/3/5 554/3/5
f 558/4/5 556/4/5 555/4/5
f 558/3/5 555/3/5 557/3/5
f 559/4/5 556/4/5 558/4/5
f 560/4/5 556/4/5 559/4/5
f 561/3/5 560/3/5 559/3/5
f 562/3/5 560/3/5 561/3/5
f 563/4/5 562/4/5 561/4/5
f 564/4/5 562/4/5 563/4/5
f 571/2/5 566/2/5 565/2/5
f 572/2/5 566/2/5 571/2/5
f 573/3/5 568/3/5 567/3/5
f 574/2/5 570/2/5 569/2/5
f 574/2/5 569/2/5 568/2/5
f 574/3/5 568/3/5 573/3/5
f 575/2/5 570/2/5 574/2/5
f 576/3/5 573/3/5 572/3/5
f 577/3/5 573/3/5 576/3/5
f 584/1/5 579/1/5 578/1/5
f 585/4/5 580/4/5 579/4/5
f 585/1/5 579/1/5 584/1/5
f 586/4/5 580/4/5 585/4/5
f 587/2/5 582/2/5 581/2/5
f 588/4/5 583/4/5 582/4/5
f 588/2/5 582/2/5 587/2/5
f 589/4/5 583/4/5 588/4/5
f 591/3/5 589/3/5 588/3/5
f 592/2/5 590/2/5 589/2/5
f 592/3/5 589/3/5 591/3/5
f 593/2/5 590/2/5 592/2/5
f 594/2/5 590/2/5 593/2/5
f 599/3/5 596/3/5 595/3/5
f 600/3/5 596/3/5 599/3/5
f 602/1/5 598/1/5 597/1/5
f 603/1/5 598/1/5 602/1/5
f 604/2/5 601/2/5 600/2/5
f 604/2/5 600/2/5 599/2/5
f 605/2/5 601/2/5 604/2/5
f 608/2/5 607/2/5 606/2/5
f 609/2/5 607/2/5 608/2/5
f 612/1/5 611/1/5 610/1/5
f 613/1/5 611/1/5 612/1/5
f 614/2/6 615/2/6 618/2/6
f 618/2/6 615/2/6 619/2/6
f 616/3/6 617/3/6 621/3/6
f 617/1/6 618/1/6 622/1/6
f 621/3/6 617/3/6 622/3/6
f 618/1/6 619/1/6 622/1/6
f 622/1/6 619/1/6 623/1/6
f 619/2/6 620/2/6 624/2/6
f 623/1/6 619/1/6 624/1/6
f 624/2/6 620/2/6 625/2/6
f 622/2/6 623/2/6 626/2/6
f 623/3/6 624/3/6 627/3/6
f 626/2/6 623/2/6 627/2/6
f 627/3/6 624/3/6 628/3/6
f 629/2/6 630/2/6 634/2/6
f 630/1/6 631/1/6 635/1/6
f 634/2/6 630/2/6 635/2/6
f 631/2/6 632/2/6 636/2/6
f 635/1/6 631/1/6 636/1/6
f 636/2/6 632/2/6 637/2/6
f 633/3/6 634/3/6 640/3/6
f 634/2/6 635/2/6 641/2/6
f 640/3/6 634/3/6 641/3/6
f 641/2/6 635/2/6 642/2/6
f 636/1/6 637/1/6 643/1/6
f 637/2/6 638/2/6 644/2/6
f 643/1/6 637/1/6 644/1/6
f 644/2/6 638/2/6 645/2/6
f 639/3/6 640/3/6 646/3/6
f 646/3/6 640/3/6 647/3/6
f 644/1/6 645/1/6 649/1/6
f 649/1/6 645/1/6 650/1/6
f 646/2/6 647/2/6 651/2/6
f 651/2/6 647/2/6 652/2/6
f 648/3/6 649/3/6 655/3/6
f 649/1/6 650/1/6 656/1/6
f 655/3/6 649/3/6 656/3/6
f 656/1/6 650/1/6 657/1/6
f 653/2/6 654/2/6 658/2/6
f 654/3/6 655/3/6 659/3/6
f 658/2/6 654/2/6 659/2/6
f 655/1/6 656/1/6 660/1/6
f 659/3/6 655/3/6 660/3/6
f 660/1/6 656/1/6 661/1/6
f 664/2/6 665/2/6 667/2/6
f 665/1/6 666/1/6 668/1/6
f 667/2/6 665/2/6 668/2/6
f 668/1/6 666/1/6 669/1/6
f 662/2/6 663/2/6 671/2/6
f 671/2/6 663/2/6 672/2/6
f 668/3/6 669/3/6 673/3/6
f 669/4/6 670/4/6 674/4/6
f 673/3/6 669/3/6 674/3/6
f 674/4/6 670/4/6 675/4/6
f 674/4/6 675/4/6 676/4/6
f 676/4/6 675/4/6 677/4/6
f 676/3/6 677/3/6 680/3/6
f 680/3/6 677/3/6 681/3/6
f 678/1/6 679/1/6 682/1/6
f 682/1/6 679/1/6 683/1/6
f 680/4/6 681/4/6 685/4/6
f 685/4/6 681/4/6 686/4/6
f 682/2/6 683/2/6 687/2/6
f 687/2/6 683/2/6 688/2/6
f 684/3/6 685/3/6 691/3/6
f 691/3/6 685/3/6 692/3/6
f 688/2/6 689/2/6 693/2/6
f 689/1/6 690/1/6 694/1/6
f 693/2/6 689/2/6 694/2/6
f 690/3/6 691/3/6 695/3/6
f 694/1/6 690/1/6 695/1/6
f 695/3/6 691/3/6 696/3/6
f 694/3/6 695/3/6 697/3/6
f 697/3/6 695/3/6 698/3/6
f 699/4/6 700/4/6 704/4/6
f 704/4/6 700/4/6 705/4/6
f 701/2/6 702/2/6 706/2/6
f 706/2/6 702/2/6 707/2/6
f 707/3/6 708/3/6 709/3/6
f 709/3/6 708/3/6 710/3/6
f 703/3/6 704/3/6 712/3/6
f 712/3/6 704/3/6 713/3/6
f 710/2/6 711/2/6 714/2/6
f 714/2/6 711/2/6 715/2/6
f 716/3/6 717/3/6 721/3/6
f 717/1/6 718/1/6 722/1/6
f 721/3/6 717/3/6 722/3/6
f 722/1/6 718/1/6 723/1/6
f 719/1/6 720/1/6 725/1/6
f 725/1/6 720/1/6 726/1/6
f 724/3/6 725/3/6 727/3/6
f 727/3/6 725/3/6 728/3/6
f 729/4/6 730/4/6 734/4/6
f 734/4/6 730/4/6 735/4/6
f 731/4/6 732/4/6 736/4/6
f 732/2/6 733/2/6 737/2/6
f 736/4/6 732/4/6 737/4/6
f 737/2/6 733/2/6 738/2/6
f 737/1/6 738/1/6 739/1/6
f 739/1/6 738/1/6 740/1/6
f 741/3/6 742/3/6 743/3/6
f 743/3/6 742/3/6 744/3/6
f 745/1/6 746/1/6 748/1/6
f 746/2/6 747/2/6 749/2/6
f 748/1/6 746/1/6 749/1/6
f 749/2/6 747/2/6 750/2/6
f 749/1/6 750/1/6 751/1/6
f 751/1/6 750/1/6 752/1/6
