# MagicaVoxel @ Ephtracy

# group
o 

# material
mtllib fox.mtl
usemtl palette

# normals
vn -1 0 0
vn 1 0 0
vn 0 0 1
vn 0 0 -1
vn 0 -1 0
vn 0 1 0

# texcoords
vt 0.169922 0.5
vt 0.208984 0.5
vt 0.224609 0.5
vt 0.958984 0.5
vt 0.994141 0.5

# verts
v -0.4 0 0.4
v -0.4 0 0.2
v -0.4 0 -0.2
v -0.4 0 -0.4
v -0.4 0.1 0.4
v -0.4 0.1 0.2
v -0.4 0.1 0.1
v -0.4 0.1 -0.1
v -0.4 0.1 -0.2
v -0.4 0.1 -0.4
v -0.4 0.2 0.1
v -0.4 0.2 -0.1
v -0.4 0.7 0.4
v -0.4 0.7 -0.2
v -0.4 0.8 -0.2
v -0.4 0.8 -0.4
v -0.4 1 -0.2
v -0.4 1 -0.4
v -0.2 0 0.5
v -0.2 0 0.4
v -0.2 0.1 0.4
v -0.2 0.7 0.4
v -0.2 0.7 0.1
v -0.2 0.8 0.5
v -0.2 0.8 0.2
v -0.2 0.9 0.2
v -0.2 0.9 0.1
v -0.1 0 0.2
v -0.1 0 0.1
v -0.1 0.1 0.2
v -0.1 0.1 0.1
v -0.1 0.2 -0.4
v -0.1 0.2 -0.5
v -0.1 0.3 -0.4
v -0.1 0.3 -0.5
v -0.1 0.4 -0.4
v -0.1 0.4 -0.5
v -0.1 0.8 0.5
v -0.1 0.8 0.2
v -0.1 0.9 0.5
v -0.1 0.9 0.2
v 0.1 0.7 -0.2
v 0.1 0.7 -0.4
v 0.1 0.8 -0.2
v 0.1 0.8 -0.4
v 0.1 1 -0.2
v 0.1 1 -0.4
v 0.2 0 -0.2
v 0.2 0 -0.4
v 0.2 0.1 -0.2
v 0.2 0.1 -0.3
v 0.2 0.1 -0.4
v -0.2 0 -0.2
v -0.2 0 -0.4
v -0.2 0.1 -0.2
v -0.2 0.1 -0.3
v -0.2 0.1 -0.4
v -0.1 0.7 -0.2
v -0.1 0.7 -0.4
v -0.1 0.8 -0.2
v -0.1 0.8 -0.4
v -0.1 1 -0.2
v -0.1 1 -0.4
v 0.1 0 0.2
v 0.1 0 0.1
v 0.1 0.1 0.2
v 0.1 0.1 0.1
v 0.1 0.2 -0.4
v 0.1 0.2 -0.5
v 0.1 0.3 -0.4
v 0.1 0.3 -0.5
v 0.1 0.4 -0.4
v 0.1 0.4 -0.5
v 0.1 0.8 0.5
v 0.1 0.8 0.2
v 0.1 0.9 0.5
v 0.1 0.9 0.2
v 0.2 0 0.5
v 0.2 0 0.4
v 0.2 0.1 0.4
v 0.2 0.7 0.4
v 0.2 0.7 0.1
v 0.2 0.8 0.5
v 0.2 0.8 0.2
v 0.2 0.9 0.2
v 0.2 0.9 0.1
v 0.4 0 0.4
v 0.4 0 0.2
v 0.4 0 -0.2
v 0.4 0 -0.4
v 0.4 0.1 0.4
v 0.4 0.1 0.2
v 0.4 0.1 0.1
v 0.4 0.1 -0.1
v 0.4 0.1 -0.2
v 0.4 0.1 -0.4
v 0.4 0.2 0.1
v 0.4 0.2 -0.1
v 0.4 0.7 0.4
v 0.4 0.7 -0.2
v 0.4 0.8 -0.2
v 0.4 0.8 -0.4
v 0.4 1 -0.2
v 0.4 1 -0.4
v -0.2 0 0.5
v -0.2 0.8 0.5
v -0.1 0.8 0.5
v -0.1 0.9 0.5
v 0.1 0.8 0.5
v 0.1 0.9 0.5
v 0.2 0 0.5
v 0.2 0.8 0.5
v -0.4 0 0.4
v -0.4 0.1 0.4
v -0.4 0.7 0.4
v -0.2 0 0.4
v -0.2 0.1 0.4
v -0.2 0.7 0.4
v 0.2 0 0.4
v 0.2 0.1 0.4
v 0.2 0.7 0.4
v 0.4 0 0.4
v 0.4 0.1 0.4
v 0.4 0.7 0.4
v -0.2 0.8 0.2
v -0.2 0.9 0.2
v -0.1 0.8 0.2
v -0.1 0.9 0.2
v 0.1 0.8 0.2
v 0.1 0.9 0.2
v 0.2 0.8 0.2
v 0.2 0.9 0.2
v -0.4 0 -0.2
v -0.4 0.1 -0.2
v -0.4 0.7 -0.2
v -0.4 0.8 -0.2
v -0.4 1 -0.2
v -0.2 0 -0.2
v -0.2 0.1 -0.2
v -0.1 0.7 -0.2
v -0.1 0.8 -0.2
v -0.1 1 -0.2
v 0.1 0.7 -0.2
v 0.1 0.8 -0.2
v 0.1 1 -0.2
v 0.2 0 -0.2
v 0.2 0.1 -0.2
v 0.4 0 -0.2
v 0.4 0.1 -0.2
v 0.4 0.7 -0.2
v 0.4 0.8 -0.2
v 0.4 1 -0.2
v -0.4 0 0.2
v -0.4 0.1 0.2
v -0.2 0 0.2
v -0.2 0.1 0.2
v -0.1 0 0.2
v -0.1 0.1 0.2
v 0.1 0 0.2
v 0.1 0.1 0.2
v 0.2 0 0.2
v 0.2 0.1 0.2
v 0.4 0 0.2
v 0.4 0.1 0.2
v -0.2 0.7 0.1
v -0.2 0.9 0.1
v -0.1 0 0.1
v -0.1 0.1 0.1
v 0.1 0 0.1
v 0.1 0.1 0.1
v 0.2 0.7 0.1
v 0.2 0.9 0.1
v -0.4 0 -0.4
v -0.4 0.1 -0.4
v -0.4 0.8 -0.4
v -0.4 1 -0.4
v -0.3 0.4 -0.4
v -0.3 0.5 -0.4
v -0.3 0.6 -0.4
v -0.3 0.8 -0.4
v -0.3 0.9 -0.4
v -0.2 0 -0.4
v -0.2 0.1 -0.4
v -0.2 0.3 -0.4
v -0.2 0.5 -0.4
v -0.2 0.6 -0.4
v -0.2 0.8 -0.4
v -0.2 0.9 -0.4
v -0.1 0.2 -0.4
v -0.1 0.3 -0.4
v -0.1 0.4 -0.4
v -0.1 0.6 -0.4
v -0.1 0.7 -0.4
v -0.1 0.8 -0.4
v -0.1 1 -0.4
v 0.1 0.2 -0.4
v 0.1 0.3 -0.4
v 0.1 0.4 -0.4
v 0.1 0.6 -0.4
v 0.1 0.7 -0.4
v 0.1 0.8 -0.4
v 0.1 1 -0.4
v 0.2 0 -0.4
v 0.2 0.1 -0.4
v 0.2 0.3 -0.4
v 0.2 0.5 -0.4
v 0.2 0.6 -0.4
v 0.2 0.8 -0.4
v 0.2 0.9 -0.4
v 0.3 0.4 -0.4
v 0.3 0.5 -0.4
v 0.3 0.6 -0.4
v 0.3 0.8 -0.4
v 0.3 0.9 -0.4
v 0.4 0 -0.4
v 0.4 0.1 -0.4
v 0.4 0.8 -0.4
v 0.4 1 -0.4
v -0.1 0.2 -0.5
v -0.1 0.3 -0.5
v -0.1 0.4 -0.5
v 0.1 0.2 -0.5
v 0.1 0.3 -0.5
v 0.1 0.4 -0.5
v -0.2 0 0.5
v 0.2 0 0.5
v -0.4 0 0.4
v -0.2 0 0.4
v 0.2 0 0.4
v 0.4 0 0.4
v -0.4 0 0.2
v -0.2 0 0.2
v -0.1 0 0.2
v 0.1 0 0.2
v 0.2 0 0.2
v 0.4 0 0.2
v -0.1 0 0.1
v 0.1 0 0.1
v -0.4 0 -0.2
v -0.2 0 -0.2
v 0.2 0 -0.2
v 0.4 0 -0.2
v -0.4 0 -0.4
v -0.2 0 -0.4
v 0.2 0 -0.4
v 0.4 0 -0.4
v -0.4 0.1 0.2
v -0.2 0.1 0.2
v -0.1 0.1 0.2
v 0.1 0.1 0.2
v 0.2 0.1 0.2
v 0.4 0.1 0.2
v -0.4 0.1 0.1
v -0.1 0.1 0.1
v 0.1 0.1 0.1
v 0.4 0.1 0.1
v -0.4 0.1 -0.1
v -0.1 0.1 -0.1
v 0.1 0.1 -0.1
v 0.4 0.1 -0.1
v -0.4 0.1 -0.2
v -0.2 0.1 -0.2
v 0.2 0.1 -0.2
v 0.4 0.1 -0.2
v -0.2 0.1 -0.3
v -0.1 0.1 -0.3
v 0.1 0.1 -0.3
v 0.2 0.1 -0.3
v -0.2 0.1 -0.4
v 0.2 0.1 -0.4
v -0.1 0.2 -0.4
v 0.1 0.2 -0.4
v -0.1 0.2 -0.5
v 0.1 0.2 -0.5
v -0.1 0.4 -0.4
v 0.1 0.4 -0.4
v -0.1 0.4 -0.5
v 0.1 0.4 -0.5
v -0.4 0.7 0.4
v -0.2 0.7 0.4
v 0.2 0.7 0.4
v 0.4 0.7 0.4
v -0.2 0.7 0.1
v 0.2 0.7 0.1
v -0.4 0.7 -0.2
v -0.1 0.7 -0.2
v 0.1 0.7 -0.2
v 0.4 0.7 -0.2
v -0.1 0.7 -0.4
v 0.1 0.7 -0.4
v -0.2 0.8 0.5
v -0.1 0.8 0.5
v 0.1 0.8 0.5
v 0.2 0.8 0.5
v -0.2 0.8 0.2
v -0.1 0.8 0.2
v 0.1 0.8 0.2
v 0.2 0.8 0.2
v -0.1 0.9 0.5
v 0.1 0.9 0.5
v -0.2 0.9 0.2
v -0.1 0.9 0.2
v 0.1 0.9 0.2
v 0.2 0.9 0.2
v -0.2 0.9 0.1
v 0.2 0.9 0.1
v -0.4 1 -0.2
v -0.1 1 -0.2
v 0.1 1 -0.2
v 0.4 1 -0.2
v -0.4 1 -0.4
v -0.1 1 -0.4
v 0.1 1 -0.4
v 0.4 1 -0.4

# faces
f 5/3/1 2/3/1 1/3/1
f 6/3/1 2/3/1 5/3/1
f 9/3/1 4/3/1 3/3/1
f 10/3/1 4/3/1 9/3/1
f 11/4/1 8/4/1 7/4/1
f 11/2/1 6/2/1 5/2/1
f 11/2/1 7/2/1 6/2/1
f 12/2/1 10/2/1 9/2/1
f 12/4/1 8/4/1 11/4/1
f 12/2/1 9/2/1 8/2/1
f 13/2/1 11/2/1 5/2/1
f 13/2/1 12/2/1 11/2/1
f 14/2/1 10/2/1 12/2/1
f 14/2/1 12/2/1 13/2/1
f 15/2/1 10/2/1 14/2/1
f 16/2/1 10/2/1 15/2/1
f 17/1/1 16/1/1 15/1/1
f 18/1/1 16/1/1 17/1/1
f 21/2/1 20/2/1 19/2/1
f 22/2/1 21/2/1 19/2/1
f 24/2/1 22/2/1 19/2/1
f 24/2/1 23/2/1 22/2/1
f 25/2/1 23/2/1 24/2/1
f 26/2/1 23/2/1 25/2/1
f 27/2/1 23/2/1 26/2/1
f 30/2/1 29/2/1 28/2/1
f 31/2/1 29/2/1 30/2/1
f 34/2/1 33/2/1 32/2/1
f 35/2/1 33/2/1 34/2/1
f 36/5/1 35/5/1 34/5/1
f 37/5/1 35/5/1 36/5/1
f 40/4/1 39/4/1 38/4/1
f 41/4/1 39/4/1 40/4/1
f 44/2/1 43/2/1 42/2/1
f 45/2/1 43/2/1 44/2/1
f 46/1/1 45/1/1 44/1/1
f 47/1/1 45/1/1 46/1/1
f 50/3/1 49/3/1 48/3/1
f 51/3/1 49/3/1 50/3/1
f 52/3/1 49/3/1 51/3/1
f 53/3/2 54/3/2 55/3/2
f 55/3/2 54/3/2 56/3/2
f 56/3/2 54/3/2 57/3/2
f 58/2/2 59/2/2 60/2/2
f 60/2/2 59/2/2 61/2/2
f 60/1/2 61/1/2 62/1/2
f 62/1/2 61/1/2 63/1/2
f 64/2/2 65/2/2 66/2/2
f 66/2/2 65/2/2 67/2/2
f 68/2/2 69/2/2 70/2/2
f 70/2/2 69/2/2 71/2/2
f 70/5/2 71/5/2 72/5/2
f 72/5/2 71/5/2 73/5/2
f 74/4/2 75/4/2 76/4/2
f 76/4/2 75/4/2 77/4/2
f 78/2/2 79/2/2 80/2/2
f 78/2/2 80/2/2 81/2/2
f 78/2/2 81/2/2 83/2/2
f 81/2/2 82/2/2 83/2/2
f 83/2/2 82/2/2 84/2/2
f 84/2/2 82/2/2 85/2/2
f 85/2/2 82/2/2 86/2/2
f 87/3/2 88/3/2 91/3/2
f 91/3/2 88/3/2 92/3/2
f 89/3/2 90/3/2 95/3/2
f 95/3/2 90/3/2 96/3/2
f 93/4/2 94/4/2 97/4/2
f 91/2/2 92/2/2 97/2/2
f 92/2/2 93/2/2 97/2/2
f 95/2/2 96/2/2 98/2/2
f 97/4/2 94/4/2 98/4/2
f 94/2/2 95/2/2 98/2/2
f 91/2/2 97/2/2 99/2/2
f 97/2/2 98/2/2 99/2/2
f 98/2/2 96/2/2 100/2/2
f 99/2/2 98/2/2 100/2/2
f 100/2/2 96/2/2 101/2/2
f 101/2/2 96/2/2 102/2/2
f 101/1/2 102/1/2 103/1/2
f 103/1/2 102/1/2 104/1/2
f 107/2/3 106/2/3 105/2/3
f 109/2/3 107/2/3 105/2/3
f 109/4/3 108/4/3 107/4/3
f 110/4/3 108/4/3 109/4/3
f 111/2/3 109/2/3 105/2/3
f 112/2/3 109/2/3 111/2/3
f 116/3/3 114/3/3 113/3/3
f 117/2/3 115/2/3 114/2/3
f 117/3/3 114/3/3 116/3/3
f 118/2/3 115/2/3 117/2/3
f 122/3/3 120/3/3 119/3/3
f 123/2/3 121/2/3 120/2/3
f 123/3/3 120/3/3 122/3/3
f 124/2/3 121/2/3 123/2/3
f 127/2/3 126/2/3 125/2/3
f 128/2/3 126/2/3 127/2/3
f 131/2/3 130/2/3 129/2/3
f 132/2/3 130/2/3 131/2/3
f 138/3/3 134/3/3 133/3/3
f 139/3/3 134/3/3 138/3/3
f 140/2/3 136/2/3 135/2/3
f 141/1/3 137/1/3 136/1/3
f 141/2/3 136/2/3 140/2/3
f 142/1/3 137/1/3 141/1/3
f 148/3/3 147/3/3 146/3/3
f 149/3/3 147/3/3 148/3/3
f 150/2/3 144/2/3 143/2/3
f 151/1/3 145/1/3 144/1/3
f 151/2/3 144/2/3 150/2/3
f 152/1/3 145/1/3 151/1/3
f 153/3/4 154/3/4 155/3/4
f 155/3/4 154/3/4 156/3/4
f 155/2/4 156/2/4 157/2/4
f 157/2/4 156/2/4 158/2/4
f 159/2/4 160/2/4 161/2/4
f 161/2/4 160/2/4 162/2/4
f 161/3/4 162/3/4 163/3/4
f 163/3/4 162/3/4 164/3/4
f 167/2/4 168/2/4 169/2/4
f 169/2/4 168/2/4 170/2/4
f 165/2/4 166/2/4 171/2/4
f 171/2/4 166/2/4 172/2/4
f 174/2/4 175/2/4 177/2/4
f 177/2/4 175/2/4 178/2/4
f 178/2/4 175/2/4 179/2/4
f 175/1/4 176/1/4 180/1/4
f 179/2/4 175/2/4 180/2/4
f 180/1/4 176/1/4 181/1/4
f 173/3/4 174/3/4 182/3/4
f 174/2/4 177/2/4 183/2/4
f 182/3/4 174/3/4 183/3/4
f 183/2/4 177/2/4 184/2/4
f 178/4/4 179/4/4 185/4/4
f 177/5/4 178/5/4 185/5/4
f 179/2/4 180/2/4 186/2/4
f 185/4/4 179/4/4 186/4/4
f 180/4/4 181/4/4 187/4/4
f 186/2/4 180/2/4 187/2/4
f 181/1/4 176/1/4 188/1/4
f 187/4/4 181/4/4 188/4/4
f 183/4/4 184/4/4 189/4/4
f 184/2/4 177/2/4 190/2/4
f 189/4/4 184/4/4 190/4/4
f 177/5/4 185/5/4 191/5/4
f 190/2/4 177/2/4 191/2/4
f 185/5/4 186/5/4 191/5/4
f 186/2/4 187/2/4 192/2/4
f 191/5/4 186/5/4 192/5/4
f 192/2/4 187/2/4 193/2/4
f 187/1/4 188/1/4 194/1/4
f 193/2/4 187/2/4 194/2/4
f 188/1/4 176/1/4 195/1/4
f 194/1/4 188/1/4 195/1/4
f 183/4/4 189/4/4 196/4/4
f 191/2/4 192/2/4 198/2/4
f 192/2/4 193/2/4 198/2/4
f 198/2/4 193/2/4 199/2/4
f 199/2/4 193/2/4 200/2/4
f 196/4/4 197/4/4 204/4/4
f 183/4/4 196/4/4 204/4/4
f 197/2/4 198/2/4 205/2/4
f 204/4/4 197/4/4 205/4/4
f 198/5/4 199/5/4 206/5/4
f 200/2/4 201/2/4 207/2/4
f 206/5/4 199/5/4 207/5/4
f 199/2/4 200/2/4 207/2/4
f 201/1/4 202/1/4 208/1/4
f 207/2/4 201/2/4 208/2/4
f 208/1/4 202/1/4 209/1/4
f 198/5/4 206/5/4 210/5/4
f 205/2/4 198/2/4 210/2/4
f 204/2/4 205/2/4 210/2/4
f 206/4/4 207/4/4 211/4/4
f 210/5/4 206/5/4 211/5/4
f 207/2/4 208/2/4 212/2/4
f 211/4/4 207/4/4 212/4/4
f 208/4/4 209/4/4 213/4/4
f 212/2/4 208/2/4 213/2/4
f 209/1/4 202/1/4 214/1/4
f 213/4/4 209/4/4 214/4/4
f 203/3/4 204/3/4 215/3/4
f 204/2/4 210/2/4 216/2/4
f 215/3/4 204/3/4 216/3/4
f 212/2/4 213/2/4 216/2/4
f 211/2/4 212/2/4 216/2/4
f 210/2/4 211/2/4 216/2/4
f 213/1/4 214/1/4 217/1/4
f 216/2/4 213/2/4 217/2/4
f 214/1/4 202/1/4 218/1/4
f 217/1/4 214/1/4 218/1/4
f 219/2/4 220/2/4 222/2/4
f 220/5/4 221/5/4 223/5/4
f 222/2/4 220/2/4 223/2/4
f 223/5/4 221/5/4 224/5/4
f 228/2/5 226/2/5 225/2/5
f 229/2/5 226/2/5 228/2/5
f 231/3/5 228/3/5 227/3/5
f 232/2/5 229/2/5 228/2/5
f 232/3/5 228/3/5 231/3/5
f 233/2/5 229/2/5 232/2/5
f 234/2/5 229/2/5 233/2/5
f 235/3/5 230/3/5 229/3/5
f 235/2/5 229/2/5 234/2/5
f 236/3/5 230/3/5 235/3/5
f 237/2/5 234/2/5 233/2/5
f 238/2/5 234/2/5 237/2/5
f 243/3/5 240/3/5 239/3/5
f 244/3/5 240/3/5 243/3/5
f 245/3/5 242/3/5 241/3/5
f 246/3/5 242/3/5 245/3/5
f 253/2/5 248/2/5 247/2/5
f 253/2/5 249/2/5 248/2/5
f 254/2/5 249/2/5 253/2/5
f 255/2/5 252/2/5 251/2/5
f 255/2/5 251/2/5 250/2/5
f 256/2/5 252/2/5 255/2/5
f 257/4/5 254/4/5 253/4/5
f 257/4/5 255/4/5 254/4/5
f 257/4/5 256/4/5 255/4/5
f 258/4/5 256/4/5 257/4/5
f 259/4/5 256/4/5 258/4/5
f 260/4/5 256/4/5 259/4/5
f 261/2/5 258/2/5 257/2/5
f 262/2/5 258/2/5 261/2/5
f 263/2/5 260/2/5 259/2/5
f 264/2/5 260/2/5 263/2/5
f 265/2/5 258/2/5 262/2/5
f 266/4/5 259/4/5 258/4/5
f 266/2/5 258/2/5 265/2/5
f 267/2/5 263/2/5 259/2/5
f 267/4/5 259/4/5 266/4/5
f 268/2/5 263/2/5 267/2/5
f 269/4/5 266/4/5 265/4/5
f 269/4/5 267/4/5 266/4/5
f 269/4/5 268/4/5 267/4/5
f 270/4/5 268/4/5 269/4/5
f 273/2/5 272/2/5 271/2/5
f 274/2/5 272/2/5 273/2/5
f 275/5/6 276/5/6 277/5/6
f 277/5/6 276/5/6 278/5/6
f 279/2/6 280/2/6 283/2/6
f 281/2/6 282/2/6 284/2/6
f 279/2/6 283/2/6 285/2/6
f 283/2/6 284/2/6 285/2/6
f 285/2/6 284/2/6 286/2/6
f 286/2/6 284/2/6 287/2/6
f 284/2/6 282/2/6 288/2/6
f 287/2/6 284/2/6 288/2/6
f 286/2/6 287/2/6 289/2/6
f 289/2/6 287/2/6 290/2/6
f 291/2/6 292/2/6 295/2/6
f 295/2/6 292/2/6 296/2/6
f 293/2/6 294/2/6 297/2/6
f 297/2/6 294/2/6 298/2/6
f 299/4/6 300/4/6 302/4/6
f 302/4/6 300/4/6 303/4/6
f 301/2/6 302/2/6 305/2/6
f 303/2/6 304/2/6 305/2/6
f 302/2/6 303/2/6 305/2/6
f 305/2/6 304/2/6 306/2/6
f 307/1/6 308/1/6 311/1/6
f 311/1/6 308/1/6 312/1/6
f 309/1/6 310/1/6 313/1/6
f 313/1/6 310/1/6 314/1/6
