# MagicaVoxel @ Ephtracy

# group
o 

# material
mtllib Mouse.mtl
usemtl palette

# normals
vn -1 0 0
vn 1 0 0
vn 0 0 1
vn 0 0 -1
vn 0 -1 0
vn 0 1 0

# texcoords
vt 0.0292969 0.5
vt 0.935547 0.5
vt 0.958984 0.5
vt 0.994141 0.5

# verts
v -0.9 0.3 0.2
v -0.9 0.3 0.1
v -0.9 0.4 0.2
v -0.9 0.4 0.1
v -0.8 0.2 0.2
v -0.8 0.2 0.1
v -0.8 0.3 0.3
v -0.8 0.3 0.2
v -0.8 0.3 0.1
v -0.8 0.3 0
v -0.8 0.4 0.3
v -0.8 0.4 0.2
v -0.8 0.4 0.1
v -0.8 0.4 0
v -0.8 0.5 0.2
v -0.8 0.5 0.1
v -0.7 0.2 0.3
v -0.7 0.2 0.2
v -0.7 0.2 0.1
v -0.7 0.2 0
v -0.7 0.3 0.3
v -0.7 0.3 0.2
v -0.7 0.3 0.1
v -0.7 0.3 0
v -0.7 0.4 0.3
v -0.7 0.4 0.2
v -0.7 0.4 0.1
v -0.7 0.4 0
v -0.7 0.5 0.3
v -0.7 0.5 0.2
v -0.7 0.5 0.1
v -0.7 0.5 0
v -0.6 0.4 0.5
v -0.6 0.4 0.3
v -0.6 0.4 0
v -0.6 0.4 -0.2
v -0.6 0.5 0.3
v -0.6 0.5 0
v -0.6 0.6 0.5
v -0.6 0.6 0.3
v -0.6 0.6 0
v -0.6 0.6 -0.2
v -0.5 0 0.3
v -0.5 0 0.2
v -0.5 0 0.1
v -0.5 0 0
v -0.5 0.1 0.3
v -0.5 0.1 0.2
v -0.5 0.1 0.1
v -0.5 0.1 0
v -0.5 0.2 0.3
v -0.5 0.2 0.2
v -0.5 0.2 0.1
v -0.5 0.2 0
v -0.2 0 0.3
v -0.2 0 0.2
v -0.2 0 0.1
v -0.2 0 0
v -0.2 0.1 0.3
v -0.2 0.1 0.2
v -0.2 0.1 0.1
v -0.2 0.1 0
v 0.1 0 0.2
v 0.1 0 0.1
v 0.1 0.1 0.2
v 0.1 0.1 0.1
v -0.6 0.4 0.3
v -0.6 0.4 0.2
v -0.6 0.4 0.1
v -0.6 0.4 0
v -0.6 0.5 0.3
v -0.6 0.5 0.2
v -0.6 0.5 0.1
v -0.6 0.5 0
v -0.5 0.4 0.5
v -0.5 0.4 0.4
v -0.5 0.4 0.2
v -0.5 0.4 0.1
v -0.5 0.4 -0.1
v -0.5 0.4 -0.2
v -0.5 0.5 0.4
v -0.5 0.5 0.3
v -0.5 0.5 0.2
v -0.5 0.5 0.1
v -0.5 0.5 0
v -0.5 0.5 -0.1
v -0.5 0.6 0.5
v -0.5 0.6 0.3
v -0.5 0.6 0
v -0.5 0.6 -0.2
v -0.4 0 0.3
v -0.4 0 0.2
v -0.4 0 0.1
v -0.4 0 0
v -0.4 0.1 0.3
v -0.4 0.1 0.2
v -0.4 0.1 0.1
v -0.4 0.1 0
v -0.4 0.4 0.4
v -0.4 0.4 0.3
v -0.4 0.4 0
v -0.4 0.4 -0.1
v -0.4 0.5 0.4
v -0.4 0.5 0.3
v -0.4 0.5 0
v -0.4 0.5 -0.1
v -0.2 0.3 0.3
v -0.2 0.3 0.2
v -0.2 0.3 0.1
v -0.2 0.3 0
v -0.2 0.4 0.3
v -0.2 0.4 0.2
v -0.2 0.4 0.1
v -0.2 0.4 0
v -0.1 0 0.3
v -0.1 0 0.2
v -0.1 0 0.1
v -0.1 0 0
v -0.1 0.1 0.3
v -0.1 0.1 0.2
v -0.1 0.1 0.1
v -0.1 0.1 0
v -0.1 0.2 0.3
v -0.1 0.2 0.2
v -0.1 0.2 0.1
v -0.1 0.2 0
v -0.1 0.3 0.3
v -0.1 0.3 0.2
v -0.1 0.3 0.1
v -0.1 0.3 0
v -0.1 0.4 0.2
v -0.1 0.4 0.1
v 0.2 0.1 0.2
v 0.2 0.1 0.1
v 0.2 0.2 0.2
v 0.2 0.2 0.1
v 0.3 0 0.2
v 0.3 0 0.1
v 0.3 0.1 0.2
v 0.3 0.1 0.1
v -0.6 0.4 0.5
v -0.6 0.6 0.5
v -0.5 0.4 0.5
v -0.5 0.6 0.5
v -0.5 0.4 0.4
v -0.5 0.5 0.4
v -0.4 0.4 0.4
v -0.4 0.5 0.4
v -0.8 0.3 0.3
v -0.8 0.4 0.3
v -0.7 0.2 0.3
v -0.7 0.3 0.3
v -0.7 0.4 0.3
v -0.7 0.5 0.3
v -0.6 0.3 0.3
v -0.6 0.4 0.3
v -0.6 0.5 0.3
v -0.5 0 0.3
v -0.5 0.1 0.3
v -0.5 0.2 0.3
v -0.4 0 0.3
v -0.4 0.1 0.3
v -0.4 0.4 0.3
v -0.2 0 0.3
v -0.2 0.1 0.3
v -0.2 0.3 0.3
v -0.2 0.4 0.3
v -0.1 0 0.3
v -0.1 0.1 0.3
v -0.1 0.2 0.3
v -0.1 0.3 0.3
v -0.9 0.3 0.2
v -0.9 0.4 0.2
v -0.8 0.2 0.2
v -0.8 0.3 0.2
v -0.8 0.4 0.2
v -0.8 0.5 0.2
v -0.7 0.2 0.2
v -0.7 0.3 0.2
v -0.7 0.4 0.2
v -0.7 0.5 0.2
v -0.6 0.4 0.2
v -0.6 0.5 0.2
v -0.5 0.4 0.2
v -0.5 0.5 0.2
v -0.2 0.3 0.2
v -0.2 0.4 0.2
v -0.1 0.1 0.2
v -0.1 0.2 0.2
v -0.1 0.3 0.2
v -0.1 0.4 0.2
v 0.1 0 0.2
v 0.1 0.1 0.2
v 0.2 0.1 0.2
v 0.2 0.2 0.2
v 0.3 0 0.2
v 0.3 0.1 0.2
v -0.5 0 0.1
v -0.5 0.1 0.1
v -0.4 0 0.1
v -0.4 0.1 0.1
v -0.2 0 0.1
v -0.2 0.1 0.1
v -0.1 0 0.1
v -0.1 0.1 0.1
v -0.6 0.4 0
v -0.6 0.5 0
v -0.6 0.6 0
v -0.5 0.5 0
v -0.5 0.6 0
v -0.4 0.4 0
v -0.4 0.5 0
v -0.6 0.4 0.3
v -0.6 0.5 0.3
v -0.6 0.6 0.3
v -0.5 0.5 0.3
v -0.5 0.6 0.3
v -0.4 0.4 0.3
v -0.4 0.5 0.3
v -0.5 0 0.2
v -0.5 0.1 0.2
v -0.4 0 0.2
v -0.4 0.1 0.2
v -0.2 0 0.2
v -0.2 0.1 0.2
v -0.1 0 0.2
v -0.1 0.1 0.2
v -0.9 0.3 0.1
v -0.9 0.4 0.1
v -0.8 0.2 0.1
v -0.8 0.3 0.1
v -0.8 0.4 0.1
v -0.8 0.5 0.1
v -0.7 0.2 0.1
v -0.7 0.3 0.1
v -0.7 0.4 0.1
v -0.7 0.5 0.1
v -0.6 0.4 0.1
v -0.6 0.5 0.1
v -0.5 0.4 0.1
v -0.5 0.5 0.1
v -0.2 0.3 0.1
v -0.2 0.4 0.1
v -0.1 0.1 0.1
v -0.1 0.2 0.1
v -0.1 0.3 0.1
v -0.1 0.4 0.1
v 0.1 0 0.1
v 0.1 0.1 0.1
v 0.2 0.1 0.1
v 0.2 0.2 0.1
v 0.3 0 0.1
v 0.3 0.1 0.1
v -0.8 0.3 0
v -0.8 0.4 0
v -0.7 0.2 0
v -0.7 0.3 0
v -0.7 0.4 0
v -0.7 0.5 0
v -0.6 0.3 0
v -0.6 0.4 0
v -0.6 0.5 0
v -0.5 0 0
v -0.5 0.1 0
v -0.5 0.2 0
v -0.4 0 0
v -0.4 0.1 0
v -0.4 0.4 0
v -0.2 0 0
v -0.2 0.1 0
v -0.2 0.3 0
v -0.2 0.4 0
v -0.1 0 0
v -0.1 0.1 0
v -0.1 0.2 0
v -0.1 0.3 0
v -0.5 0.4 -0.1
v -0.5 0.5 -0.1
v -0.4 0.4 -0.1
v -0.4 0.5 -0.1
v -0.6 0.4 -0.2
v -0.6 0.6 -0.2
v -0.5 0.4 -0.2
v -0.5 0.6 -0.2
v -0.5 0 0.3
v -0.4 0 0.3
v -0.2 0 0.3
v -0.1 0 0.3
v -0.5 0 0.2
v -0.4 0 0.2
v -0.2 0 0.2
v -0.1 0 0.2
v 0.1 0 0.2
v 0.3 0 0.2
v -0.5 0 0.1
v -0.4 0 0.1
v -0.2 0 0.1
v -0.1 0 0.1
v 0.1 0 0.1
v 0.3 0 0.1
v -0.5 0 0
v -0.4 0 0
v -0.2 0 0
v -0.1 0 0
v -0.4 0.1 0.3
v -0.2 0.1 0.3
v -0.5 0.1 0.2
v -0.4 0.1 0.2
v -0.2 0.1 0.2
v -0.1 0.1 0.2
v 0.1 0.1 0.2
v -0.5 0.1 0.1
v -0.4 0.1 0.1
v -0.2 0.1 0.1
v -0.1 0.1 0.1
v 0.1 0.1 0.1
v -0.4 0.1 0
v -0.2 0.1 0
v -0.7 0.2 0.3
v -0.5 0.2 0.3
v -0.8 0.2 0.2
v -0.7 0.2 0.2
v -0.6 0.2 0.2
v -0.5 0.2 0.2
v -0.8 0.2 0.1
v -0.7 0.2 0.1
v -0.6 0.2 0.1
v -0.5 0.2 0.1
v -0.7 0.2 0
v -0.5 0.2 0
v -0.8 0.3 0.3
v -0.7 0.3 0.3
v -0.9 0.3 0.2
v -0.8 0.3 0.2
v -0.7 0.3 0.2
v -0.9 0.3 0.1
v -0.8 0.3 0.1
v -0.7 0.3 0.1
v -0.8 0.3 0
v -0.7 0.3 0
v -0.6 0.4 0.5
v -0.5 0.4 0.5
v -0.5 0.4 0.4
v -0.4 0.4 0.4
v -0.6 0.4 0.3
v -0.4 0.4 0.3
v -0.6 0.4 0
v -0.4 0.4 0
v -0.5 0.4 -0.1
v -0.4 0.4 -0.1
v -0.6 0.4 -0.2
v -0.5 0.4 -0.2
v 0.2 0.1 0.2
v 0.3 0.1 0.2
v 0.2 0.1 0.1
v 0.3 0.1 0.1
v -0.1 0.2 0.2
v 0.2 0.2 0.2
v -0.1 0.2 0.1
v 0.2 0.2 0.1
v -0.2 0.3 0.3
v -0.1 0.3 0.3
v -0.2 0.3 0.2
v -0.1 0.3 0.2
v -0.2 0.3 0.1
v -0.1 0.3 0.1
v -0.2 0.3 0
v -0.1 0.3 0
v -0.8 0.4 0.3
v -0.7 0.4 0.3
v -0.6 0.4 0.3
v -0.4 0.4 0.3
v -0.2 0.4 0.3
v -0.9 0.4 0.2
v -0.8 0.4 0.2
v -0.7 0.4 0.2
v -0.6 0.4 0.2
v -0.5 0.4 0.2
v -0.2 0.4 0.2
v -0.1 0.4 0.2
v -0.9 0.4 0.1
v -0.8 0.4 0.1
v -0.7 0.4 0.1
v -0.6 0.4 0.1
v -0.5 0.4 0.1
v -0.2 0.4 0.1
v -0.1 0.4 0.1
v -0.8 0.4 0
v -0.7 0.4 0
v -0.6 0.4 0
v -0.4 0.4 0
v -0.2 0.4 0
v -0.5 0.5 0.4
v -0.4 0.5 0.4
v -0.7 0.5 0.3
v -0.6 0.5 0.3
v -0.5 0.5 0.3
v -0.4 0.5 0.3
v -0.8 0.5 0.2
v -0.7 0.5 0.2
v -0.6 0.5 0.2
v -0.5 0.5 0.2
v -0.8 0.5 0.1
v -0.7 0.5 0.1
v -0.6 0.5 0.1
v -0.5 0.5 0.1
v -0.7 0.5 0
v -0.6 0.5 0
v -0.5 0.5 0
v -0.4 0.5 0
v -0.5 0.5 -0.1
v -0.4 0.5 -0.1
v -0.6 0.6 0.5
v -0.5 0.6 0.5
v -0.6 0.6 0.3
v -0.5 0.6 0.3
v -0.6 0.6 0
v -0.5 0.6 0
v -0.6 0.6 -0.2
v -0.5 0.6 -0.2

# faces
f 3/1/1 2/1/1 1/1/1
f 4/1/1 2/1/1 3/1/1
f 8/2/1 6/2/1 5/2/1
f 9/2/1 6/2/1 8/2/1
f 11/2/1 8/2/1 7/2/1
f 12/2/1 8/2/1 11/2/1
f 13/2/1 10/2/1 9/2/1
f 14/2/1 10/2/1 13/2/1
f 15/2/1 13/2/1 12/2/1
f 16/2/1 13/2/1 15/2/1
f 21/2/1 18/2/1 17/2/1
f 22/2/1 18/2/1 21/2/1
f 23/2/1 20/2/1 19/2/1
f 24/2/1 20/2/1 23/2/1
f 29/2/1 26/2/1 25/2/1
f 30/2/1 26/2/1 29/2/1
f 31/2/1 28/2/1 27/2/1
f 32/2/1 28/2/1 31/2/1
f 37/1/1 34/1/1 33/1/1
f 38/1/1 36/1/1 35/1/1
f 39/1/1 37/1/1 33/1/1
f 40/1/1 37/1/1 39/1/1
f 41/1/1 36/1/1 38/1/1
f 42/1/1 36/1/1 41/1/1
f 47/1/1 44/1/1 43/1/1
f 48/1/1 44/1/1 47/1/1
f 49/1/1 46/1/1 45/1/1
f 50/1/1 46/1/1 49/1/1
f 51/3/1 48/3/1 47/3/1
f 51/3/1 49/3/1 48/3/1
f 51/3/1 50/3/1 49/3/1
f 52/3/1 50/3/1 51/3/1
f 53/3/1 50/3/1 52/3/1
f 54/3/1 50/3/1 53/3/1
f 59/1/1 56/1/1 55/1/1
f 60/1/1 56/1/1 59/1/1
f 61/1/1 58/1/1 57/1/1
f 62/1/1 58/1/1 61/1/1
f 65/1/1 64/1/1 63/1/1
f 66/1/1 64/1/1 65/1/1
f 67/2/2 68/2/2 71/2/2
f 71/2/2 68/2/2 72/2/2
f 69/2/2 70/2/2 73/2/2
f 73/2/2 70/2/2 74/2/2
f 75/1/2 76/1/2 81/1/2
f 77/2/2 78/2/2 83/2/2
f 83/2/2 78/2/2 84/2/2
f 79/1/2 80/1/2 86/1/2
f 81/1/2 82/1/2 87/1/2
f 75/1/2 81/1/2 87/1/2
f 87/1/2 82/1/2 88/1/2
f 85/1/2 86/1/2 89/1/2
f 86/1/2 80/1/2 90/1/2
f 89/1/2 86/1/2 90/1/2
f 91/1/2 92/1/2 95/1/2
f 95/1/2 92/1/2 96/1/2
f 93/1/2 94/1/2 97/1/2
f 97/1/2 94/1/2 98/1/2
f 99/1/2 100/1/2 103/1/2
f 103/1/2 100/1/2 104/1/2
f 101/1/2 102/1/2 105/1/2
f 105/1/2 102/1/2 106/1/2
f 107/2/2 108/2/2 111/2/2
f 111/2/2 108/2/2 112/2/2
f 109/2/2 110/2/2 113/2/2
f 113/2/2 110/2/2 114/2/2
f 115/1/2 116/1/2 119/1/2
f 119/1/2 116/1/2 120/1/2
f 117/1/2 118/1/2 121/1/2
f 121/1/2 118/1/2 122/1/2
f 119/3/2 120/3/2 123/3/2
f 123/3/2 120/3/2 124/3/2
f 121/3/2 122/3/2 125/3/2
f 125/3/2 122/3/2 126/3/2
f 123/2/2 124/2/2 127/2/2
f 124/2/2 125/2/2 127/2/2
f 125/2/2 126/2/2 127/2/2
f 127/2/2 126/2/2 128/2/2
f 128/2/2 126/2/2 129/2/2
f 129/2/2 126/2/2 130/2/2
f 128/2/2 129/2/2 131/2/2
f 131/2/2 129/2/2 132/2/2
f 133/1/2 134/1/2 135/1/2
f 135/1/2 134/1/2 136/1/2
f 137/1/2 138/1/2 139/1/2
f 139/1/2 138/1/2 140/1/2
f 143/1/3 142/1/3 141/1/3
f 144/1/3 142/1/3 143/1/3
f 147/1/3 146/1/3 145/1/3
f 148/1/3 146/1/3 147/1/3
f 152/2/3 150/2/3 149/2/3
f 153/2/3 150/2/3 152/2/3
f 155/2/3 152/2/3 151/2/3
f 155/4/3 153/4/3 152/4/3
f 156/2/3 154/2/3 153/2/3
f 156/4/3 153/4/3 155/4/3
f 157/2/3 154/2/3 156/2/3
f 160/2/3 155/2/3 151/2/3
f 160/2/3 156/2/3 155/2/3
f 161/1/3 159/1/3 158/1/3
f 162/3/3 160/3/3 159/3/3
f 162/1/3 159/1/3 161/1/3
f 163/2/3 156/2/3 160/2/3
f 165/3/3 160/3/3 162/3/3
f 166/2/3 163/2/3 160/2/3
f 167/2/3 163/2/3 166/2/3
f 168/1/3 165/1/3 164/1/3
f 169/3/3 160/3/3 165/3/3
f 169/1/3 165/1/3 168/1/3
f 170/2/3 166/2/3 160/2/3
f 170/3/3 160/3/3 169/3/3
f 171/2/3 166/2/3 170/2/3
f 175/1/3 173/1/3 172/1/3
f 176/1/3 173/1/3 175/1/3
f 178/2/3 175/2/3 174/2/3
f 179/2/3 175/2/3 178/2/3
f 180/2/3 177/2/3 176/2/3
f 181/2/3 177/2/3 180/2/3
f 184/2/3 183/2/3 182/2/3
f 185/2/3 183/2/3 184/2/3
f 190/2/3 187/2/3 186/2/3
f 191/2/3 187/2/3 190/2/3
f 193/1/3 189/1/3 188/1/3
f 194/1/3 189/1/3 193/1/3
f 194/1/3 193/1/3 192/1/3
f 195/1/3 189/1/3 194/1/3
f 196/1/3 194/1/3 192/1/3
f 197/1/3 194/1/3 196/1/3
f 200/1/3 199/1/3 198/1/3
f 201/1/3 199/1/3 200/1/3
f 204/1/3 203/1/3 202/1/3
f 205/1/3 203/1/3 204/1/3
f 209/1/3 207/1/3 206/1/3
f 209/1/3 208/1/3 207/1/3
f 210/1/3 208/1/3 209/1/3
f 211/1/3 209/1/3 206/1/3
f 212/1/3 209/1/3 211/1/3
f 213/1/4 214/1/4 216/1/4
f 214/1/4 215/1/4 216/1/4
f 216/1/4 215/1/4 217/1/4
f 213/1/4 216/1/4 218/1/4
f 218/1/4 216/1/4 219/1/4
f 220/1/4 221/1/4 222/1/4
f 222/1/4 221/1/4 223/1/4
f 224/1/4 225/1/4 226/1/4
f 226/1/4 225/1/4 227/1/4
f 228/1/4 229/1/4 231/1/4
f 231/1/4 229/1/4 232/1/4
f 230/2/4 231/2/4 234/2/4
f 234/2/4 231/2/4 235/2/4
f 232/2/4 233/2/4 236/2/4
f 236/2/4 233/2/4 237/2/4
f 238/2/4 239/2/4 240/2/4
f 240/2/4 239/2/4 241/2/4
f 242/2/4 243/2/4 246/2/4
f 246/2/4 243/2/4 247/2/4
f 244/1/4 245/1/4 249/1/4
f 249/1/4 245/1/4 250/1/4
f 248/1/4 249/1/4 250/1/4
f 250/1/4 245/1/4 251/1/4
f 248/1/4 250/1/4 252/1/4
f 252/1/4 250/1/4 253/1/4
f 254/2/4 255/2/4 257/2/4
f 257/2/4 255/2/4 258/2/4
f 256/2/4 257/2/4 260/2/4
f 257/4/4 258/4/4 260/4/4
f 258/2/4 259/2/4 261/2/4
f 260/4/4 258/4/4 261/4/4
f 261/2/4 259/2/4 262/2/4
f 256/2/4 260/2/4 265/2/4
f 260/2/4 261/2/4 265/2/4
f 263/1/4 264/1/4 266/1/4
f 264/3/4 265/3/4 267/3/4
f 266/1/4 264/1/4 267/1/4
f 265/2/4 261/2/4 268/2/4
f 267/3/4 265/3/4 270/3/4
f 265/2/4 268/2/4 271/2/4
f 271/2/4 268/2/4 272/2/4
f 269/1/4 270/1/4 273/1/4
f 270/3/4 265/3/4 274/3/4
f 273/1/4 270/1/4 274/1/4
f 265/2/4 271/2/4 275/2/4
f 274/3/4 265/3/4 275/3/4
f 275/2/4 271/2/4 276/2/4
f 277/1/4 278/1/4 279/1/4
f 279/1/4 278/1/4 280/1/4
f 281/1/4 282/1/4 283/1/4
f 283/1/4 282/1/4 284/1/4
f 289/1/5 286/1/5 285/1/5
f 290/1/5 286/1/5 289/1/5
f 291/1/5 288/1/5 287/1/5
f 292/1/5 288/1/5 291/1/5
f 299/1/5 294/1/5 293/1/5
f 300/1/5 294/1/5 299/1/5
f 301/1/5 296/1/5 295/1/5
f 302/1/5 296/1/5 301/1/5
f 303/1/5 298/1/5 297/1/5
f 304/1/5 298/1/5 303/1/5
f 308/3/5 306/3/5 305/3/5
f 309/3/5 306/3/5 308/3/5
f 312/3/5 308/3/5 307/3/5
f 312/3/5 309/3/5 308/3/5
f 312/3/5 310/3/5 309/3/5
f 313/3/5 310/3/5 312/3/5
f 314/3/5 310/3/5 313/3/5
f 315/1/5 311/1/5 310/1/5
f 315/3/5 310/3/5 314/3/5
f 316/1/5 311/1/5 315/1/5
f 317/3/5 314/3/5 313/3/5
f 318/3/5 314/3/5 317/3/5
f 322/2/5 320/2/5 319/2/5
f 323/2/5 320/2/5 322/2/5
f 324/2/5 320/2/5 323/2/5
f 325/2/5 322/2/5 321/2/5
f 325/2/5 323/2/5 322/2/5
f 326/2/5 323/2/5 325/2/5
f 327/3/5 324/3/5 323/3/5
f 327/2/5 323/2/5 326/2/5
f 328/3/5 324/3/5 327/3/5
f 329/2/5 327/2/5 326/2/5
f 329/2/5 328/2/5 327/2/5
f 330/2/5 328/2/5 329/2/5
f 334/2/5 332/2/5 331/2/5
f 335/2/5 332/2/5 334/2/5
f 336/1/5 334/1/5 333/1/5
f 337/1/5 334/1/5 336/1/5
f 339/2/5 338/2/5 337/2/5
f 340/2/5 338/2/5 339/2/5
f 343/1/5 342/1/5 341/1/5
f 345/1/5 343/1/5 341/1/5
f 345/1/5 344/1/5 343/1/5
f 346/1/5 344/1/5 345/1/5
f 349/1/5 348/1/5 347/1/5
f 350/1/5 348/1/5 349/1/5
f 351/1/5 349/1/5 347/1/5
f 352/1/5 349/1/5 351/1/5
f 353/1/6 354/1/6 355/1/6
f 355/1/6 354/1/6 356/1/6
f 357/1/6 358/1/6 359/1/6
f 359/1/6 358/1/6 360/1/6
f 361/2/6 362/2/6 363/2/6
f 363/2/6 362/2/6 364/2/6
f 365/2/6 366/2/6 367/2/6
f 367/2/6 366/2/6 368/2/6
f 369/2/6 370/2/6 375/2/6
f 375/2/6 370/2/6 376/2/6
f 372/2/6 373/2/6 377/2/6
f 371/2/6 372/2/6 377/2/6
f 377/2/6 373/2/6 378/2/6
f 378/2/6 373/2/6 379/2/6
f 374/1/6 375/1/6 381/1/6
f 381/1/6 375/1/6 382/1/6
f 379/2/6 380/2/6 385/2/6
f 378/2/6 379/2/6 385/2/6
f 385/2/6 380/2/6 386/2/6
f 386/2/6 380/2/6 387/2/6
f 382/2/6 383/2/6 388/2/6
f 388/2/6 383/2/6 389/2/6
f 385/2/6 386/2/6 390/2/6
f 384/2/6 385/2/6 390/2/6
f 390/2/6 386/2/6 391/2/6
f 391/2/6 386/2/6 392/2/6
f 393/1/6 394/1/6 397/1/6
f 397/1/6 394/1/6 398/1/6
f 395/2/6 396/2/6 400/2/6
f 400/2/6 396/2/6 401/2/6
f 399/2/6 400/2/6 403/2/6
f 401/2/6 402/2/6 403/2/6
f 400/2/6 401/2/6 403/2/6
f 403/2/6 402/2/6 404/2/6
f 404/2/6 402/2/6 405/2/6
f 405/2/6 402/2/6 406/2/6
f 404/2/6 405/2/6 407/2/6
f 407/2/6 405/2/6 408/2/6
f 409/1/6 410/1/6 411/1/6
f 411/1/6 410/1/6 412/1/6
f 413/1/6 414/1/6 415/1/6
f 415/1/6 414/1/6 416/1/6
f 417/1/6 418/1/6 419/1/6
f 419/1/6 418/1/6 420/1/6
