# MagicaVoxel @ Ephtracy

# group
o 

# material
mtllib Snake.mtl
usemtl palette

# normals
vn -1 0 0
vn 1 0 0
vn 0 0 1
vn 0 0 -1
vn 0 -1 0
vn 0 1 0

# texcoords
vt 0.0566406 0.5
vt 0.0644531 0.5
vt 0.279297 0.5
vt 0.326172 0.5
vt 0.583984 0.5
vt 0.595703 0.5
vt 0.607422 0.5
vt 0.994141 0.5

# verts
v -1.2 0.4 0.1
v -1.2 0.4 0
v -1.2 0.5 0.1
v -1.2 0.5 0
v -1.2 0.6 0.1
v -1.2 0.6 0
v -1 0.4 0.2
v -1 0.4 0.1
v -1 0.4 0
v -1 0.4 -0.1
v -1 0.5 0.2
v -1 0.5 0.1
v -1 0.5 0
v -1 0.5 -0.1
v -1 0.6 0.2
v -1 0.6 0.1
v -1 0.6 0
v -1 0.7 0.2
v -1 0.7 0.1
v -1 0.7 0
v -1 0.7 -0.1
v -0.8 0 0.2
v -0.8 0 0.1
v -0.8 0 -0.1
v -0.8 0.1 0
v -0.8 0.1 -0.1
v -0.8 0.2 0.2
v -0.8 0.2 0.1
v -0.8 0.3 0
v -0.8 0.3 -0.1
v -0.8 0.4 0.2
v -0.8 0.4 0.1
v -0.8 0.4 -0.1
v -0.4 0 0.4
v -0.4 0 0.2
v -0.4 0.1 0.4
v -0.4 0.1 0.3
v -0.4 0.1 0.2
v -0.4 0.2 0.4
v -0.4 0.2 0.3
v -0.4 0.2 0.2
v 0 0 0.1
v 0 0 0
v 0 0 -0.1
v 0 0.1 0.1
v 0 0.1 0
v 0 0.1 -0.1
v 0 0.2 0.1
v 0 0.2 -0.1
v -1.1 0.5 0.1
v -1.1 0.5 0
v -1.1 0.6 0.1
v -1.1 0.6 0
v -0.6 0.2 0.2
v -0.6 0.2 0.1
v -0.6 0.2 0
v -0.6 0.2 -0.1
v -0.6 0.3 0.1
v -0.6 0.3 0
v -0.6 0.4 0.1
v -0.6 0.4 0
v -0.6 0.4 -0.1
v -0.6 0.5 0.2
v -0.6 0.5 0.1
v -0.6 0.6 0.1
v -0.6 0.6 0
v -0.6 0.6 -0.1
v -0.6 0.7 0.2
v -0.6 0.7 0
v -0.6 0.7 -0.1
v -0.2 0 0.1
v -0.2 0 -0.1
v -0.2 0.1 0.1
v -0.2 0.1 -0.1
v -0.2 0.2 0.1
v -0.2 0.2 -0.1
v 0.2 0 0.4
v 0.2 0 0.2
v 0.2 0.1 0.4
v 0.2 0.1 0.2
v 0.2 0.2 0.4
v 0.2 0.2 0.2
v 0.6 0 0.2
v 0.6 0 0.1
v 0.6 0 0
v 0.6 0 -0.1
v 0.6 0.1 0.2
v 0.6 0.1 0.1
v 0.6 0.1 0
v 0.6 0.1 -0.1
v 0.6 0.2 0.2
v 0.6 0.2 0.1
v 0.6 0.2 0
v 0.6 0.2 -0.1
v -0.4 0 0.4
v -0.4 0.1 0.4
v -0.4 0.2 0.4
v -0.3 0.1 0.4
v -0.3 0.2 0.4
v -0.2 0 0.4
v -0.2 0.1 0.4
v -0.1 0 0.4
v -0.1 0.1 0.4
v -0.1 0.2 0.4
v 0.2 0 0.4
v 0.2 0.1 0.4
v 0.2 0.2 0.4
v -1 0.4 0.2
v -1 0.5 0.2
v -1 0.6 0.2
v -1 0.7 0.2
v -0.9 0.4 0.2
v -0.9 0.5 0.2
v -0.9 0.6 0.2
v -0.9 0.7 0.2
v -0.8 0 0.2
v -0.8 0.2 0.2
v -0.8 0.4 0.2
v -0.8 0.5 0.2
v -0.8 0.6 0.2
v -0.7 0 0.2
v -0.7 0.1 0.2
v -0.7 0.2 0.2
v -0.7 0.4 0.2
v -0.7 0.5 0.2
v -0.7 0.6 0.2
v -0.7 0.7 0.2
v -0.6 0.2 0.2
v -0.6 0.5 0.2
v -0.6 0.7 0.2
v -0.5 0.1 0.2
v -0.5 0.2 0.2
v -0.4 0 0.2
v -0.4 0.1 0.2
v -0.4 0.2 0.2
v 0.2 0 0.2
v 0.2 0.1 0.2
v 0.2 0.2 0.2
v 0.3 0.1 0.2
v 0.3 0.2 0.2
v 0.5 0.1 0.2
v 0.5 0.2 0.2
v 0.6 0 0.2
v 0.6 0.1 0.2
v 0.6 0.2 0.2
v -1.2 0.4 0.1
v -1.2 0.5 0.1
v -1.2 0.6 0.1
v -1.1 0.4 0.1
v -1.1 0.5 0.1
v -1.1 0.6 0.1
v -1 0.4 0.1
v -1 0.5 0.1
v -0.2 0 0.1
v -0.2 0.1 0.1
v -0.2 0.2 0.1
v 0 0 0.1
v 0 0.1 0.1
v 0 0.2 0.1
v -1.2 0.4 0
v -1.2 0.5 0
v -1.2 0.6 0
v -1.1 0.4 0
v -1.1 0.5 0
v -1.1 0.6 0
v -1 0.4 0
v -1 0.5 0
v -1 0.4 -0.1
v -1 0.5 -0.1
v -1 0.7 -0.1
v -0.9 0.4 -0.1
v -0.9 0.5 -0.1
v -0.9 0.6 -0.1
v -0.9 0.7 -0.1
v -0.8 0 -0.1
v -0.8 0.1 -0.1
v -0.8 0.3 -0.1
v -0.8 0.4 -0.1
v -0.8 0.5 -0.1
v -0.8 0.6 -0.1
v -0.7 0.1 -0.1
v -0.7 0.2 -0.1
v -0.7 0.3 -0.1
v -0.7 0.4 -0.1
v -0.7 0.5 -0.1
v -0.7 0.6 -0.1
v -0.6 0.1 -0.1
v -0.6 0.2 -0.1
v -0.6 0.4 -0.1
v -0.6 0.6 -0.1
v -0.6 0.7 -0.1
v -0.5 0 -0.1
v -0.5 0.1 -0.1
v -0.5 0.2 -0.1
v -0.4 0 -0.1
v -0.4 0.1 -0.1
v -0.2 0 -0.1
v -0.2 0.1 -0.1
v -0.2 0.2 -0.1
v 0 0 -0.1
v 0 0.1 -0.1
v 0 0.2 -0.1
v 0.2 0.1 -0.1
v 0.2 0.2 -0.1
v 0.4 0 -0.1
v 0.4 0.1 -0.1
v 0.4 0.2 -0.1
v 0.5 0.1 -0.1
v 0.5 0.2 -0.1
v 0.6 0 -0.1
v 0.6 0.1 -0.1
v 0.6 0.2 -0.1
v -0.4 0 0.4
v -0.2 0 0.4
v -0.1 0 0.4
v 0.2 0 0.4
v -0.2 0 0.3
v -0.1 0 0.3
v 0.0999999 0 0.3
v -0.8 0 0.2
v -0.7 0 0.2
v -0.4 0 0.2
v -0.3 0 0.2
v -0.1 0 0.2
v 0 0 0.2
v 0.0999999 0 0.2
v 0.2 0 0.2
v 0.6 0 0.2
v -0.8 0 0.1
v -0.7 0 0.1
v -0.5 0 0.1
v -0.4 0 0.1
v -0.3 0 0.1
v -0.2 0 0.1
v 0 0 0.1
v 0.2 0 0.1
v 0.3 0 0.1
v 0.6 0 0.1
v 0 0 0
v 0.3 0 0
v 0.4 0 0
v 0.6 0 0
v -0.8 0 -0.1
v -0.5 0 -0.1
v -0.4 0 -0.1
v -0.2 0 -0.1
v 0 0 -0.1
v 0.4 0 -0.1
v 0.6 0 -0.1
v -1 0.4 0.2
v -0.9 0.4 0.2
v -0.8 0.4 0.2
v -1.2 0.4 0.1
v -1.1 0.4 0.1
v -1 0.4 0.1
v -0.9 0.4 0.1
v -0.8 0.4 0.1
v -1.2 0.4 0
v -1.1 0.4 0
v -1 0.4 0
v -0.9 0.4 0
v -1 0.4 -0.1
v -0.9 0.4 -0.1
v -0.8 0.4 -0.1
v -0.4 0.2 0.4
v -0.3 0.2 0.4
v -0.1 0.2 0.4
v 0.2 0.2 0.4
v -0.4 0.2 0.3
v -0.3 0.2 0.3
v -0.2 0.2 0.3
v -0.1 0.2 0.3
v 0 0.2 0.3
v 0.0999999 0.2 0.3
v -0.6 0.2 0.2
v -0.5 0.2 0.2
v -0.4 0.2 0.2
v -0.3 0.2 0.2
v -0.2 0.2 0.2
v 0 0.2 0.2
v 0.0999999 0.2 0.2
v 0.2 0.2 0.2
v 0.3 0.2 0.2
v 0.5 0.2 0.2
v 0.6 0.2 0.2
v -0.6 0.2 0.1
v -0.5 0.2 0.1
v -0.2 0.2 0.1
v 0 0.2 0.1
v 0.0999999 0.2 0.1
v 0.2 0.2 0.1
v 0.3 0.2 0.1
v 0.4 0.2 0.1
v 0.5 0.2 0.1
v 0.6 0.2 0.1
v -0.6 0.2 0
v -0.5 0.2 0
v -0.4 0.2 0
v -0.3 0.2 0
v 0.0999999 0.2 0
v 0.2 0.2 0
v 0.4 0.2 0
v 0.5 0.2 0
v 0.6 0.2 0
v -0.6 0.2 -0.1
v -0.5 0.2 -0.1
v -0.2 0.2 -0.1
v 0 0.2 -0.1
v 0.2 0.2 -0.1
v 0.4 0.2 -0.1
v 0.5 0.2 -0.1
v 0.6 0.2 -0.1
v -1.1 0.5 0.1
v -1 0.5 0.1
v -1.1 0.5 0
v -1 0.5 0
v -1.2 0.6 0.1
v -1.1 0.6 0.1
v -1.2 0.6 0
v -1.1 0.6 0
v -1 0.7 0.2
v -0.9 0.7 0.2
v -0.7 0.7 0.2
v -0.6 0.7 0.2
v -1 0.7 0.1
v -0.9 0.7 0.1
v -0.7 0.7 0.1
v -1 0.7 0
v -0.9 0.7 0
v -0.7 0.7 0
v -0.6 0.7 0
v -1 0.7 -0.1
v -0.9 0.7 -0.1
v -0.6 0.7 -0.1

# faces
f 3/1/1 2/1/1 1/1/1
f 4/1/1 2/1/1 3/1/1
f 5/2/1 4/2/1 3/2/1
f 6/2/1 4/2/1 5/2/1
f 11/5/1 8/5/1 7/5/1
f 12/5/1 8/5/1 11/5/1
f 13/7/1 10/7/1 9/7/1
f 14/7/1 10/7/1 13/7/1
f 15/7/1 12/7/1 11/7/1
f 16/5/1 13/5/1 12/5/1
f 16/7/1 12/7/1 15/7/1
f 16/5/1 14/5/1 13/5/1
f 17/5/1 14/5/1 16/5/1
f 18/5/1 16/5/1 15/5/1
f 19/6/1 17/6/1 16/6/1
f 19/5/1 16/5/1 18/5/1
f 20/5/1 14/5/1 17/5/1
f 20/6/1 17/6/1 19/6/1
f 21/5/1 14/5/1 20/5/1
f 25/4/1 24/4/1 23/4/1
f 26/4/1 24/4/1 25/4/1
f 27/3/1 23/3/1 22/3/1
f 28/4/1 25/4/1 23/4/1
f 28/3/1 23/3/1 27/3/1
f 29/3/1 26/3/1 25/3/1
f 29/4/1 25/4/1 28/4/1
f 29/4/1 28/4/1 27/4/1
f 30/3/1 26/3/1 29/3/1
f 31/4/1 29/4/1 27/4/1
f 31/4/1 30/4/1 29/4/1
f 32/4/1 30/4/1 31/4/1
f 33/4/1 30/4/1 32/4/1
f 36/4/1 35/4/1 34/4/1
f 37/4/1 35/4/1 36/4/1
f 38/4/1 35/4/1 37/4/1
f 39/5/1 37/5/1 36/5/1
f 40/7/1 38/7/1 37/7/1
f 40/5/1 37/5/1 39/5/1
f 41/7/1 38/7/1 40/7/1
f 45/4/1 43/4/1 42/4/1
f 46/3/1 44/3/1 43/3/1
f 46/4/1 43/4/1 45/4/1
f 47/3/1 44/3/1 46/3/1
f 48/6/1 46/6/1 45/6/1
f 48/6/1 47/6/1 46/6/1
f 49/6/1 47/6/1 48/6/1
f 50/2/2 51/2/2 52/2/2
f 52/2/2 51/2/2 53/2/2
f 54/7/2 55/7/2 58/7/2
f 55/7/2 56/7/2 58/7/2
f 56/6/2 57/6/2 59/6/2
f 58/7/2 56/7/2 59/7/2
f 54/7/2 58/7/2 60/7/2
f 58/5/2 59/5/2 60/5/2
f 59/6/2 57/6/2 61/6/2
f 60/5/2 59/5/2 61/5/2
f 61/6/2 57/6/2 62/6/2
f 54/7/2 60/7/2 63/7/2
f 60/7/2 61/7/2 63/7/2
f 63/7/2 61/7/2 64/7/2
f 63/5/2 64/5/2 65/5/2
f 64/7/2 61/7/2 65/7/2
f 61/5/2 62/5/2 66/5/2
f 65/7/2 61/7/2 66/7/2
f 66/5/2 62/5/2 67/5/2
f 63/5/2 65/5/2 68/5/2
f 65/5/2 66/5/2 68/5/2
f 66/6/2 67/6/2 69/6/2
f 68/5/2 66/5/2 69/5/2
f 69/6/2 67/6/2 70/6/2
f 71/4/2 72/4/2 73/4/2
f 73/4/2 72/4/2 74/4/2
f 73/5/2 74/5/2 75/5/2
f 75/5/2 74/5/2 76/5/2
f 77/4/2 78/4/2 79/4/2
f 79/4/2 78/4/2 80/4/2
f 79/5/2 80/5/2 81/5/2
f 81/5/2 80/5/2 82/5/2
f 83/4/2 84/4/2 87/4/2
f 84/3/2 85/3/2 88/3/2
f 87/4/2 84/4/2 88/4/2
f 85/4/2 86/4/2 89/4/2
f 88/3/2 85/3/2 89/3/2
f 89/4/2 86/4/2 90/4/2
f 87/7/2 88/7/2 91/7/2
f 88/6/2 89/6/2 92/6/2
f 91/7/2 88/7/2 92/7/2
f 89/5/2 90/5/2 93/5/2
f 92/6/2 89/6/2 93/6/2
f 93/5/2 90/5/2 94/5/2
f 98/4/3 96/4/3 95/4/3
f 98/5/3 97/5/3 96/5/3
f 99/5/3 97/5/3 98/5/3
f 100/4/3 98/4/3 95/4/3
f 101/7/3 99/7/3 98/7/3
f 101/4/3 98/4/3 100/4/3
f 102/3/3 101/3/3 100/3/3
f 103/7/3 99/7/3 101/7/3
f 103/3/3 101/3/3 102/3/3
f 104/7/3 99/7/3 103/7/3
f 105/4/3 103/4/3 102/4/3
f 106/5/3 104/5/3 103/5/3
f 106/4/3 103/4/3 105/4/3
f 107/5/3 104/5/3 106/5/3
f 112/5/3 109/5/3 108/5/3
f 113/7/3 110/7/3 109/7/3
f 113/5/3 109/5/3 112/5/3
f 114/5/3 111/5/3 110/5/3
f 114/7/3 110/7/3 113/7/3
f 115/5/3 111/5/3 114/5/3
f 118/7/3 113/7/3 112/7/3
f 118/7/3 114/7/3 113/7/3
f 119/7/3 114/7/3 118/7/3
f 120/6/3 115/6/3 114/6/3
f 120/7/3 114/7/3 119/7/3
f 121/3/3 117/3/3 116/3/3
f 122/3/3 117/3/3 121/3/3
f 123/4/3 118/4/3 117/4/3
f 123/3/3 117/3/3 122/3/3
f 124/5/3 119/5/3 118/5/3
f 124/4/3 118/4/3 123/4/3
f 125/8/3 120/8/3 119/8/3
f 125/5/3 119/5/3 124/5/3
f 126/6/3 115/6/3 120/6/3
f 126/8/3 120/8/3 125/8/3
f 127/6/3 115/6/3 126/6/3
f 128/7/3 125/7/3 124/7/3
f 128/5/3 123/5/3 122/5/3
f 128/7/3 124/7/3 123/7/3
f 129/5/3 127/5/3 126/5/3
f 129/7/3 125/7/3 128/7/3
f 129/5/3 126/5/3 125/5/3
f 130/5/3 127/5/3 129/5/3
f 131/5/3 128/5/3 122/5/3
f 131/4/3 122/4/3 121/4/3
f 132/5/3 128/5/3 131/5/3
f 133/4/3 131/4/3 121/4/3
f 134/6/3 132/6/3 131/6/3
f 134/4/3 131/4/3 133/4/3
f 135/6/3 132/6/3 134/6/3
f 139/4/3 137/4/3 136/4/3
f 139/7/3 138/7/3 137/7/3
f 140/7/3 138/7/3 139/7/3
f 141/4/3 139/4/3 136/4/3
f 141/5/3 140/5/3 139/5/3
f 142/5/3 140/5/3 141/5/3
f 143/4/3 141/4/3 136/4/3
f 144/7/3 142/7/3 141/7/3
f 144/4/3 141/4/3 143/4/3
f 145/7/3 142/7/3 144/7/3
f 149/1/3 147/1/3 146/1/3
f 150/2/3 148/2/3 147/2/3
f 150/1/3 147/1/3 149/1/3
f 151/2/3 148/2/3 150/2/3
f 152/2/3 150/2/3 149/2/3
f 153/2/3 150/2/3 152/2/3
f 154/4/4 155/4/4 157/4/4
f 155/7/4 156/7/4 158/7/4
f 157/4/4 155/4/4 158/4/4
f 158/7/4 156/7/4 159/7/4
f 160/1/4 161/1/4 163/1/4
f 161/2/4 162/2/4 164/2/4
f 163/1/4 161/1/4 164/1/4
f 164/2/4 162/2/4 165/2/4
f 163/2/4 164/2/4 166/2/4
f 166/2/4 164/2/4 167/2/4
f 168/7/4 169/7/4 171/7/4
f 169/5/4 170/5/4 172/5/4
f 171/7/4 169/7/4 172/7/4
f 172/5/4 170/5/4 173/5/4
f 173/5/4 170/5/4 174/5/4
f 171/5/4 172/5/4 178/5/4
f 172/5/4 173/5/4 178/5/4
f 178/5/4 173/5/4 179/5/4
f 173/6/4 174/6/4 180/6/4
f 179/5/4 173/5/4 180/5/4
f 176/3/4 177/3/4 181/3/4
f 175/4/4 176/4/4 181/4/4
f 181/3/4 177/3/4 182/3/4
f 177/4/4 178/4/4 183/4/4
f 182/3/4 177/3/4 183/3/4
f 178/5/4 179/5/4 184/5/4
f 183/4/4 178/4/4 184/4/4
f 179/8/4 180/8/4 185/8/4
f 184/5/4 179/5/4 185/5/4
f 180/6/4 174/6/4 186/6/4
f 185/8/4 180/8/4 186/8/4
f 181/5/4 182/5/4 187/5/4
f 175/4/4 181/4/4 187/4/4
f 183/6/4 184/6/4 188/6/4
f 187/5/4 182/5/4 188/5/4
f 182/6/4 183/6/4 188/6/4
f 184/5/4 185/5/4 189/5/4
f 188/6/4 184/6/4 189/6/4
f 185/5/4 186/5/4 189/5/4
f 186/6/4 174/6/4 190/6/4
f 189/5/4 186/5/4 190/5/4
f 190/6/4 174/6/4 191/6/4
f 175/4/4 187/4/4 192/4/4
f 187/6/4 188/6/4 193/6/4
f 192/4/4 187/4/4 193/4/4
f 193/6/4 188/6/4 194/6/4
f 192/3/4 193/3/4 195/3/4
f 193/5/4 194/5/4 196/5/4
f 195/3/4 193/3/4 196/3/4
f 195/4/4 196/4/4 197/4/4
f 196/5/4 194/5/4 198/5/4
f 197/4/4 196/4/4 198/4/4
f 198/5/4 194/5/4 199/5/4
f 200/3/4 201/3/4 203/3/4
f 201/6/4 202/6/4 203/6/4
f 203/6/4 202/6/4 204/6/4
f 200/3/4 203/3/4 205/3/4
f 203/5/4 204/5/4 206/5/4
f 205/3/4 203/3/4 206/3/4
f 206/5/4 204/5/4 207/5/4
f 205/4/4 206/4/4 208/4/4
f 206/6/4 207/6/4 208/6/4
f 208/6/4 207/6/4 209/6/4
f 205/4/4 208/4/4 210/4/4
f 208/5/4 209/5/4 211/5/4
f 210/4/4 208/4/4 211/4/4
f 211/5/4 209/5/4 212/5/4
f 217/4/5 214/4/5 213/4/5
f 217/3/5 215/3/5 214/3/5
f 218/4/5 216/4/5 215/4/5
f 218/3/5 215/3/5 217/3/5
f 219/4/5 216/4/5 218/4/5
f 222/4/5 217/4/5 213/4/5
f 222/4/5 218/4/5 217/4/5
f 223/4/5 218/4/5 222/4/5
f 224/3/5 219/3/5 218/3/5
f 224/4/5 218/4/5 223/4/5
f 225/3/5 219/3/5 224/3/5
f 226/4/5 216/4/5 219/4/5
f 226/3/5 219/3/5 225/3/5
f 227/4/5 216/4/5 226/4/5
f 229/3/5 221/3/5 220/3/5
f 230/4/5 222/4/5 221/4/5
f 230/3/5 221/3/5 229/3/5
f 231/4/5 222/4/5 230/4/5
f 232/3/5 223/3/5 222/3/5
f 232/4/5 222/4/5 231/4/5
f 233/4/5 225/4/5 224/4/5
f 233/3/5 223/3/5 232/3/5
f 233/4/5 224/4/5 223/4/5
f 234/4/5 225/4/5 233/4/5
f 235/3/5 226/3/5 225/3/5
f 235/4/5 225/4/5 234/4/5
f 235/3/5 227/3/5 226/3/5
f 236/4/5 228/4/5 227/4/5
f 236/3/5 227/3/5 235/3/5
f 237/4/5 228/4/5 236/4/5
f 238/4/5 228/4/5 237/4/5
f 239/4/5 236/4/5 235/4/5
f 239/4/5 237/4/5 236/4/5
f 240/3/5 238/3/5 237/3/5
f 240/4/5 237/4/5 239/4/5
f 241/3/5 238/3/5 240/3/5
f 242/3/5 238/3/5 241/3/5
f 243/4/5 231/4/5 230/4/5
f 243/4/5 230/4/5 229/4/5
f 244/3/5 232/3/5 231/3/5
f 244/4/5 231/4/5 243/4/5
f 245/4/5 234/4/5 233/4/5
f 245/3/5 232/3/5 244/3/5
f 245/4/5 233/4/5 232/4/5
f 246/4/5 234/4/5 245/4/5
f 247/3/5 241/3/5 240/3/5
f 247/3/5 240/3/5 239/3/5
f 248/4/5 242/4/5 241/4/5
f 248/3/5 241/3/5 247/3/5
f 249/4/5 242/4/5 248/4/5
f 255/5/5 251/5/5 250/5/5
f 256/7/5 252/7/5 251/7/5
f 256/5/5 251/5/5 255/5/5
f 257/7/5 252/7/5 256/7/5
f 258/1/5 254/1/5 253/1/5
f 259/2/5 255/2/5 254/2/5
f 259/1/5 254/1/5 258/1/5
f 260/5/5 256/5/5 255/5/5
f 260/2/5 255/2/5 259/2/5
f 260/5/5 257/5/5 256/5/5
f 261/5/5 257/5/5 260/5/5
f 262/7/5 261/7/5 260/7/5
f 263/5/5 257/5/5 261/5/5
f 263/7/5 261/7/5 262/7/5
f 264/5/5 257/5/5 263/5/5
f 265/5/6 266/5/6 269/5/6
f 266/7/6 267/7/6 270/7/6
f 269/5/6 266/5/6 270/5/6
f 270/7/6 267/7/6 271/7/6
f 267/5/6 268/5/6 272/5/6
f 271/7/6 267/7/6 272/7/6
f 272/5/6 268/5/6 273/5/6
f 273/5/6 268/5/6 274/5/6
f 270/7/6 271/7/6 277/7/6
f 269/7/6 270/7/6 277/7/6
f 277/7/6 271/7/6 278/7/6
f 271/5/6 272/5/6 279/5/6
f 278/7/6 271/7/6 279/7/6
f 272/5/6 273/5/6 279/5/6
f 273/6/6 274/6/6 280/6/6
f 279/5/6 273/5/6 280/5/6
f 274/5/6 268/5/6 281/5/6
f 280/6/6 274/6/6 281/6/6
f 281/5/6 268/5/6 282/5/6
f 275/5/6 276/5/6 286/5/6
f 276/6/6 277/6/6 287/6/6
f 286/5/6 276/5/6 287/5/6
f 279/7/6 280/7/6 288/7/6
f 278/5/6 279/5/6 288/5/6
f 280/6/6 281/6/6 289/6/6
f 288/7/6 280/7/6 289/7/6
f 281/7/6 282/7/6 290/7/6
f 289/6/6 281/6/6 290/6/6
f 282/7/6 283/7/6 290/7/6
f 290/7/6 283/7/6 291/7/6
f 283/5/6 284/5/6 292/5/6
f 291/7/6 283/7/6 292/7/6
f 292/5/6 284/5/6 293/5/6
f 284/7/6 285/7/6 294/7/6
f 293/5/6 284/5/6 294/5/6
f 294/7/6 285/7/6 295/7/6
f 286/7/6 287/7/6 296/7/6
f 287/6/6 277/6/6 297/6/6
f 296/7/6 287/7/6 297/7/6
f 277/7/6 278/7/6 298/7/6
f 297/6/6 277/6/6 298/6/6
f 278/5/6 288/5/6 299/5/6
f 298/7/6 278/7/6 299/7/6
f 290/5/6 291/5/6 300/5/6
f 289/6/6 290/6/6 300/6/6
f 292/7/6 293/7/6 301/7/6
f 300/5/6 291/5/6 301/5/6
f 291/7/6 292/7/6 301/7/6
f 294/6/6 295/6/6 302/6/6
f 301/7/6 293/7/6 302/7/6
f 293/6/6 294/6/6 302/6/6
f 302/6/6 295/6/6 303/6/6
f 303/6/6 295/6/6 304/6/6
f 296/6/6 297/6/6 305/6/6
f 297/5/6 298/5/6 306/5/6
f 305/6/6 297/6/6 306/6/6
f 298/5/6 299/5/6 306/5/6
f 299/5/6 288/5/6 307/5/6
f 306/5/6 299/5/6 307/5/6
f 289/6/6 300/6/6 308/6/6
f 300/6/6 301/6/6 308/6/6
f 301/5/6 302/5/6 309/5/6
f 308/6/6 301/6/6 309/6/6
f 302/6/6 303/6/6 310/6/6
f 309/5/6 302/5/6 310/5/6
f 303/5/6 304/5/6 311/5/6
f 310/6/6 303/6/6 311/6/6
f 311/5/6 304/5/6 312/5/6
f 313/2/6 314/2/6 315/2/6
f 315/2/6 314/2/6 316/2/6
f 317/2/6 318/2/6 319/2/6
f 319/2/6 318/2/6 320/2/6
f 321/5/6 322/5/6 325/5/6
f 322/6/6 323/6/6 326/6/6
f 325/5/6 322/5/6 326/5/6
f 323/5/6 324/5/6 327/5/6
f 326/6/6 323/6/6 327/6/6
f 325/6/6 326/6/6 328/6/6
f 326/7/6 327/7/6 329/7/6
f 328/6/6 326/6/6 329/6/6
f 327/5/6 324/5/6 330/5/6
f 329/7/6 327/7/6 330/7/6
f 330/5/6 324/5/6 331/5/6
f 328/5/6 329/5/6 332/5/6
f 329/6/6 330/6/6 333/6/6
f 332/5/6 329/5/6 333/5/6
f 330/6/6 331/6/6 333/6/6
f 333/6/6 331/6/6 334/6/6
