# MagicaVoxel @ Ephtracy

# group
o 

# material
mtllib Tree.mtl
usemtl palette

# normals
vn -1 0 0
vn 1 0 0
vn 0 0 1
vn 0 0 -1
vn 0 -1 0
vn 0 1 0

# texcoords
vt 0.177734 0.5
vt 0.224609 0.5
vt 0.541016 0.5
vt 0.556641 0.5

# verts
v -0.4 1.1 0
v -0.4 1.1 -0.5
v -0.4 1.2 -0.3
v -0.4 1.2 -0.5
v -0.4 1.3 -0.3
v -0.4 1.3 -0.5
v -0.4 1.4 -0.1
v -0.4 1.4 -0.4
v -0.4 1.5 -0.1
v -0.4 1.5 -0.4
v -0.4 1.7 0
v -0.4 1.7 -0.5
v -0.3 1.2 0.4
v -0.3 1.2 0
v -0.3 1.4 0.4
v -0.3 1.4 0.1
v -0.3 1.5 0.4
v -0.3 1.5 0.1
v -0.3 1.7 0.4
v -0.3 1.7 0
v -0.3 1.7 -0.4
v -0.3 1.8 0.4
v -0.3 1.8 0
v -0.3 1.8 -0.1
v -0.3 1.8 -0.3
v -0.3 1.9 -0.1
v -0.3 1.9 -0.3
v -0.3 2 0.4
v -0.3 2 -0.4
v -0.1 0 0.1
v -0.1 0 0
v -0.1 0 -0.2
v -0.1 0.1 0
v -0.1 0.1 -0.1
v -0.1 0.2 0.1
v -0.1 0.2 0
v -0.1 0.4 -0.1
v -0.1 0.4 -0.2
v -0.1 0.5 0
v -0.1 0.5 -0.1
v -0.1 0.7 0.1
v -0.1 0.7 0
v -0.1 0.7 -0.1
v -0.1 0.7 -0.2
v -0.1 0.9 -0.1
v -0.1 0.9 -0.2
v -0.1 1 0.1
v -0.1 1 0
v -0.1 1.1 0
v -0.1 1.1 -0.1
v -0.1 1.1 -0.2
v -0.1 1.2 0.1
v -0.1 1.2 0
v 0.1 1.1 -0.2
v 0.1 1.1 -0.5
v 0.1 1.2 -0.2
v 0.1 1.2 -0.4
v 0.1 1.5 -0.4
v 0.1 1.6 -0.4
v 0.1 1.7 -0.4
v 0.1 1.7 -0.5
v 0.2 0 0.1
v 0.2 0 0
v 0.2 0 -0.2
v 0.2 0.1 -0.1
v 0.2 0.1 -0.2
v 0.2 0.2 0
v 0.2 0.2 -0.1
v 0.2 0.2 -0.2
v 0.2 0.3 0.1
v 0.2 0.3 0
v 0.2 0.6 0
v 0.2 0.6 -0.1
v 0.2 0.7 0.1
v 0.2 0.7 0
v 0.2 0.7 -0.1
v 0.2 0.7 -0.2
v 0.2 0.8 0.1
v 0.2 0.8 0
v 0.2 0.9 0.1
v 0.2 0.9 0
v 0.2 1.1 0.1
v 0.2 1.1 0
v 0.2 1.1 -0.1
v 0.2 1.1 -0.2
v 0.2 1.2 0.1
v 0.2 1.2 -0.2
v 0.5 1.2 0.4
v 0.5 1.2 0.2
v 0.5 1.2 -0.4
v 0.5 1.3 0.4
v 0.5 1.3 0.2
v 0.5 1.3 -0.1
v 0.5 1.3 -0.4
v 0.5 1.4 0.2
v 0.5 1.4 0
v 0.5 1.4 -0.1
v 0.5 1.4 -0.4
v 0.5 1.5 0.2
v 0.5 1.5 0
v 0.5 1.5 -0.2
v 0.5 1.5 -0.4
v 0.5 1.6 0.4
v 0.5 1.6 0.2
v 0.5 1.6 0
v 0.5 1.6 -0.2
v 0.5 1.6 -0.4
v 0.5 1.7 0.4
v 0.5 1.7 0.2
v 0.5 1.7 0
v 0.5 1.7 -0.2
v 0.5 1.8 0.2
v 0.5 1.8 -0.1
v 0.5 1.9 0.4
v 0.5 1.9 0.2
v 0.5 1.9 -0.1
v 0.5 1.9 -0.2
v 0.5 1.9 -0.4
v 0.5 2 0.4
v 0.5 2 0.2
v 0.5 2 -0.2
v 0.5 2 -0.4
v -0.3 1.2 0.4
v -0.3 1.4 0.4
v -0.3 1.5 0.4
v -0.3 1.7 0.4
v -0.3 1.8 0.4
v -0.3 2 0.4
v -0.2 1.3 0.4
v -0.2 1.4 0.4
v -0.2 1.5 0.4
v -0.2 1.6 0.4
v -0.2 1.7 0.4
v -0.2 1.8 0.4
v 0 1.8 0.4
v 0 1.9 0.4
v 0.1 1.3 0.4
v 0.1 1.4 0.4
v 0.2 1.8 0.4
v 0.2 1.9 0.4
v 0.3 1.2 0.4
v 0.3 1.3 0.4
v 0.3 1.5 0.4
v 0.3 1.6 0.4
v 0.3 1.7 0.4
v 0.4 1.9 0.4
v 0.4 2 0.4
v 0.5 1.2 0.4
v 0.5 1.3 0.4
v 0.5 1.6 0.4
v 0.5 1.7 0.4
v 0.5 1.9 0.4
v 0.5 2 0.4
v -0.1 0 0.1
v -0.1 0.2 0.1
v -0.1 0.7 0.1
v -0.1 1 0.1
v -0.1 1.2 0.1
v 0 0 0.1
v 0 0.2 0.1
v 0 0.7 0.1
v 0 0.8 0.1
v 0 1 0.1
v 0.1 0 0.1
v 0.1 0.2 0.1
v 0.1 0.3 0.1
v 0.1 0.7 0.1
v 0.1 0.9 0.1
v 0.1 1.1 0.1
v 0.2 0 0.1
v 0.2 0.3 0.1
v 0.2 0.7 0.1
v 0.2 0.8 0.1
v 0.2 0.9 0.1
v 0.2 1.1 0.1
v 0.2 1.2 0.1
v -0.4 1.1 0
v -0.4 1.7 0
v -0.3 1.2 0
v -0.3 1.7 0
v -0.1 1.1 0
v -0.1 1.2 0
v -0.1 0 -0.2
v -0.1 0.4 -0.2
v -0.1 0.7 -0.2
v -0.1 0.9 -0.2
v -0.1 1.1 -0.2
v 0 0.2 -0.2
v 0 0.4 -0.2
v 0 0.5 -0.2
v 0 0.7 -0.2
v 0 0.9 -0.2
v 0 1.1 -0.2
v 0.1 0.1 -0.2
v 0.1 0.2 -0.2
v 0.1 0.5 -0.2
v 0.1 0.7 -0.2
v 0.1 1.1 -0.2
v 0.1 1.2 -0.2
v 0.2 0 -0.2
v 0.2 0.1 -0.2
v 0.2 0.2 -0.2
v 0.2 0.7 -0.2
v 0.2 1.1 -0.2
v 0.2 1.2 -0.2
v -0.3 1.7 -0.4
v -0.3 2 -0.4
v 0 1.8 -0.4
v 0 1.9 -0.4
v 0.1 1.2 -0.4
v 0.1 1.5 -0.4
v 0.1 1.6 -0.4
v 0.1 1.7 -0.4
v 0.2 1.8 -0.4
v 0.2 1.9 -0.4
v 0.3 1.3 -0.4
v 0.3 1.4 -0.4
v 0.4 1.9 -0.4
v 0.4 2 -0.4
v 0.5 1.2 -0.4
v 0.5 1.3 -0.4
v 0.5 1.4 -0.4
v 0.5 1.5 -0.4
v 0.5 1.6 -0.4
v 0.5 1.9 -0.4
v 0.5 2 -0.4
v -0.4 1.1 -0.5
v -0.4 1.2 -0.5
v -0.4 1.3 -0.5
v -0.4 1.7 -0.5
v -0.3 1.2 -0.5
v -0.3 1.3 -0.5
v -0.3 1.5 -0.5
v -0.3 1.6 -0.5
v -0.2 1.3 -0.5
v -0.2 1.4 -0.5
v -0.1 1.5 -0.5
v -0.1 1.6 -0.5
v 0 1.3 -0.5
v 0 1.4 -0.5
v 0.1 1.1 -0.5
v 0.1 1.7 -0.5
v -0.1 0 0.1
v 0 0 0.1
v 0.1 0 0.1
v 0.2 0 0.1
v -0.1 0 0
v 0 0 0
v 0.1 0 0
v 0.2 0 0
v -0.1 0 -0.2
v 0.2 0 -0.2
v -0.4 1.1 0
v -0.1 1.1 0
v -0.1 1.1 -0.1
v -0.1 1.1 -0.2
v 0 1.1 -0.2
v 0.1 1.1 -0.2
v -0.4 1.1 -0.5
v 0.1 1.1 -0.5
v -0.3 1.2 0.4
v 0.3 1.2 0.4
v 0.5 1.2 0.4
v 0.3 1.2 0.3
v 0.4 1.2 0.3
v 0.4 1.2 0.2
v 0.5 1.2 0.2
v -0.1 1.2 0.1
v 0.2 1.2 0.1
v -0.3 1.2 0
v -0.1 1.2 0
v 0.1 1.2 -0.2
v 0.2 1.2 -0.2
v 0.1 1.2 -0.4
v 0.5 1.2 -0.4
v -0.4 1.7 0
v -0.3 1.7 0
v -0.3 1.7 -0.4
v 0.1 1.7 -0.4
v -0.4 1.7 -0.5
v 0.1 1.7 -0.5
v -0.3 2 0.4
v 0.4 2 0.4
v 0.5 2 0.4
v 0 2 0.2
v 0.3 2 0.2
v 0.4 2 0.2
v 0.5 2 0.2
v -0.2 2 0.1
v -0.1 2 0.1
v 0 2 0.1
v 0.3 2 0.1
v -0.1 2 0
v 0 2 0
v 0.1 2 0
v 0.3 2 0
v -0.2 2 -0.1
v -0.1 2 -0.1
v 0.1 2 -0.1
v 0.2 2 -0.1
v 0.2 2 -0.2
v 0.3 2 -0.2
v 0.4 2 -0.2
v 0.5 2 -0.2
v -0.1 2 -0.3
v 0 2 -0.3
v -0.3 2 -0.4
v 0.4 2 -0.4
v 0.5 2 -0.4

# faces
f 3/4/1 2/4/1 1/4/1
f 4/4/1 2/4/1 3/4/1
f 5/4/1 3/4/1 1/4/1
f 5/3/1 4/3/1 3/3/1
f 6/3/1 4/3/1 5/3/1
f 7/4/1 5/4/1 1/4/1
f 7/4/1 6/4/1 5/4/1
f 8/4/1 6/4/1 7/4/1
f 9/4/1 7/4/1 1/4/1
f 9/3/1 8/3/1 7/3/1
f 10/4/1 6/4/1 8/4/1
f 10/3/1 8/3/1 9/3/1
f 11/4/1 9/4/1 1/4/1
f 11/4/1 10/4/1 9/4/1
f 12/4/1 6/4/1 10/4/1
f 12/4/1 10/4/1 11/4/1
f 15/4/1 14/4/1 13/4/1
f 16/4/1 14/4/1 15/4/1
f 17/3/1 16/3/1 15/3/1
f 18/4/1 14/4/1 16/4/1
f 18/3/1 16/3/1 17/3/1
f 19/4/1 18/4/1 17/4/1
f 20/4/1 14/4/1 18/4/1
f 20/4/1 18/4/1 19/4/1
f 22/3/1 20/3/1 19/3/1
f 23/4/1 21/4/1 20/4/1
f 23/3/1 20/3/1 22/3/1
f 24/4/1 21/4/1 23/4/1
f 25/4/1 21/4/1 24/4/1
f 26/4/1 23/4/1 22/4/1
f 26/4/1 24/4/1 23/4/1
f 26/3/1 25/3/1 24/3/1
f 27/4/1 21/4/1 25/4/1
f 27/3/1 25/3/1 26/3/1
f 28/4/1 26/4/1 22/4/1
f 28/4/1 27/4/1 26/4/1
f 29/4/1 21/4/1 27/4/1
f 29/4/1 27/4/1 28/4/1
f 33/2/1 31/2/1 30/2/1
f 33/1/1 32/1/1 31/1/1
f 34/1/1 32/1/1 33/1/1
f 35/2/1 33/2/1 30/2/1
f 35/2/1 34/2/1 33/2/1
f 36/2/1 34/2/1 35/2/1
f 37/1/1 32/1/1 34/1/1
f 37/2/1 34/2/1 36/2/1
f 38/1/1 32/1/1 37/1/1
f 39/1/1 36/1/1 35/1/1
f 39/2/1 37/2/1 36/2/1
f 39/2/1 38/2/1 37/2/1
f 40/2/1 38/2/1 39/2/1
f 41/1/1 39/1/1 35/1/1
f 41/1/1 40/1/1 39/1/1
f 42/1/1 40/1/1 41/1/1
f 43/2/1 38/2/1 40/2/1
f 43/1/1 40/1/1 42/1/1
f 44/2/1 38/2/1 43/2/1
f 45/1/1 43/1/1 42/1/1
f 45/1/1 44/1/1 43/1/1
f 46/1/1 44/1/1 45/1/1
f 47/2/1 42/2/1 41/2/1
f 48/1/1 45/1/1 42/1/1
f 48/2/1 42/2/1 47/2/1
f 49/1/1 48/1/1 47/1/1
f 49/1/1 45/1/1 48/1/1
f 50/2/1 46/2/1 45/2/1
f 50/1/1 45/1/1 49/1/1
f 51/2/1 46/2/1 50/2/1
f 52/1/1 49/1/1 47/1/1
f 53/1/1 49/1/1 52/1/1
f 54/4/2 55/4/2 56/4/2
f 56/4/2 55/4/2 57/4/2
f 57/4/2 55/4/2 58/4/2
f 58/4/2 55/4/2 59/4/2
f 59/4/2 55/4/2 60/4/2
f 60/4/2 55/4/2 61/4/2
f 63/1/2 64/1/2 65/1/2
f 65/1/2 64/1/2 66/1/2
f 62/2/2 63/2/2 67/2/2
f 63/1/2 65/1/2 67/1/2
f 65/2/2 66/2/2 68/2/2
f 67/1/2 65/1/2 68/1/2
f 68/2/2 66/2/2 69/2/2
f 62/2/2 67/2/2 70/2/2
f 67/2/2 68/2/2 70/2/2
f 70/2/2 68/2/2 71/2/2
f 70/1/2 71/1/2 72/1/2
f 71/2/2 68/2/2 72/2/2
f 68/1/2 69/1/2 73/1/2
f 72/2/2 68/2/2 73/2/2
f 70/1/2 72/1/2 74/1/2
f 72/1/2 73/1/2 74/1/2
f 74/1/2 73/1/2 75/1/2
f 73/1/2 69/1/2 76/1/2
f 75/1/2 73/1/2 76/1/2
f 76/1/2 69/1/2 77/1/2
f 74/2/2 75/2/2 78/2/2
f 75/1/2 76/1/2 79/1/2
f 78/2/2 75/2/2 79/2/2
f 78/1/2 79/1/2 80/1/2
f 79/1/2 76/1/2 81/1/2
f 80/1/2 79/1/2 81/1/2
f 80/2/2 81/2/2 82/2/2
f 81/1/2 76/1/2 83/1/2
f 82/2/2 81/2/2 83/2/2
f 76/2/2 77/2/2 84/2/2
f 83/1/2 76/1/2 84/1/2
f 84/2/2 77/2/2 85/2/2
f 82/1/2 83/1/2 86/1/2
f 83/1/2 84/1/2 86/1/2
f 84/1/2 85/1/2 86/1/2
f 86/1/2 85/1/2 87/1/2
f 88/3/2 89/3/2 91/3/2
f 89/4/2 90/4/2 92/4/2
f 91/3/2 89/3/2 92/3/2
f 92/4/2 90/4/2 93/4/2
f 93/4/2 90/4/2 94/4/2
f 91/4/2 92/4/2 95/4/2
f 92/4/2 93/4/2 95/4/2
f 95/4/2 93/4/2 96/4/2
f 93/3/2 94/3/2 97/3/2
f 96/4/2 93/4/2 97/4/2
f 97/3/2 94/3/2 98/3/2
f 95/3/2 96/3/2 99/3/2
f 91/4/2 95/4/2 99/4/2
f 97/4/2 98/4/2 100/4/2
f 99/3/2 96/3/2 100/3/2
f 96/4/2 97/4/2 100/4/2
f 100/4/2 98/4/2 101/4/2
f 101/4/2 98/4/2 102/4/2
f 91/4/2 99/4/2 103/4/2
f 99/4/2 100/4/2 103/4/2
f 100/4/2 101/4/2 103/4/2
f 103/4/2 101/4/2 104/4/2
f 104/4/2 101/4/2 105/4/2
f 101/3/2 102/3/2 106/3/2
f 105/4/2 101/4/2 106/4/2
f 106/3/2 102/3/2 107/3/2
f 103/3/2 104/3/2 108/3/2
f 104/4/2 105/4/2 109/4/2
f 108/3/2 104/3/2 109/3/2
f 105/3/2 106/3/2 110/3/2
f 109/4/2 105/4/2 110/4/2
f 106/4/2 107/4/2 111/4/2
f 110/3/2 106/3/2 111/3/2
f 108/4/2 109/4/2 112/4/2
f 109/4/2 110/4/2 112/4/2
f 110/4/2 111/4/2 112/4/2
f 112/4/2 111/4/2 113/4/2
f 108/4/2 112/4/2 114/4/2
f 112/3/2 113/3/2 115/3/2
f 114/4/2 112/4/2 115/4/2
f 113/4/2 111/4/2 116/4/2
f 115/3/2 113/3/2 116/3/2
f 111/4/2 107/4/2 117/4/2
f 116/4/2 111/4/2 117/4/2
f 117/4/2 107/4/2 118/4/2
f 114/3/2 115/3/2 119/3/2
f 115/4/2 116/4/2 120/4/2
f 119/3/2 115/3/2 120/3/2
f 116/4/2 117/4/2 120/4/2
f 117/3/2 118/3/2 121/3/2
f 120/4/2 117/4/2 121/4/2
f 121/3/2 118/3/2 122/3/2
f 129/4/3 124/4/3 123/4/3
f 130/3/3 125/3/3 124/3/3
f 130/4/3 124/4/3 129/4/3
f 131/4/3 126/4/3 125/4/3
f 131/3/3 125/3/3 130/3/3
f 132/4/3 126/4/3 131/4/3
f 133/3/3 127/3/3 126/3/3
f 133/4/3 126/4/3 132/4/3
f 134/4/3 128/4/3 127/4/3
f 134/3/3 127/3/3 133/3/3
f 135/4/3 133/4/3 132/4/3
f 135/4/3 128/4/3 134/4/3
f 135/4/3 134/4/3 133/4/3
f 136/4/3 128/4/3 135/4/3
f 137/4/3 129/4/3 123/4/3
f 137/3/3 130/3/3 129/3/3
f 138/4/3 131/4/3 130/4/3
f 138/3/3 130/3/3 137/3/3
f 139/3/3 136/3/3 135/3/3
f 139/4/3 135/4/3 132/4/3
f 140/4/3 128/4/3 136/4/3
f 140/3/3 136/3/3 139/3/3
f 141/4/3 137/4/3 123/4/3
f 141/4/3 138/4/3 137/4/3
f 142/4/3 138/4/3 141/4/3
f 143/4/3 131/4/3 138/4/3
f 143/4/3 138/4/3 142/4/3
f 143/3/3 132/3/3 131/3/3
f 144/4/3 139/4/3 132/4/3
f 144/3/3 132/3/3 143/3/3
f 144/4/3 140/4/3 139/4/3
f 145/4/3 140/4/3 144/4/3
f 146/4/3 128/4/3 140/4/3
f 146/4/3 140/4/3 145/4/3
f 147/4/3 128/4/3 146/4/3
f 148/3/3 142/3/3 141/3/3
f 149/4/3 143/4/3 142/4/3
f 149/3/3 142/3/3 148/3/3
f 149/4/3 144/4/3 143/4/3
f 150/3/3 145/3/3 144/3/3
f 150/4/3 144/4/3 149/4/3
f 151/4/3 146/4/3 145/4/3
f 151/3/3 145/3/3 150/3/3
f 152/3/3 147/3/3 146/3/3
f 152/4/3 146/4/3 151/4/3
f 153/3/3 147/3/3 152/3/3
f 159/2/3 155/2/3 154/2/3
f 160/1/3 156/1/3 155/1/3
f 160/2/3 155/2/3 159/2/3
f 161/2/3 157/2/3 156/2/3
f 161/1/3 156/1/3 160/1/3
f 162/2/3 157/2/3 161/2/3
f 163/1/3 158/1/3 157/1/3
f 163/2/3 157/2/3 162/2/3
f 164/1/3 160/1/3 159/1/3
f 165/2/3 162/2/3 161/2/3
f 165/1/3 160/1/3 164/1/3
f 165/2/3 161/2/3 160/2/3
f 166/2/3 162/2/3 165/2/3
f 167/2/3 162/2/3 166/2/3
f 168/1/3 163/1/3 162/1/3
f 169/1/3 158/1/3 163/1/3
f 169/1/3 163/1/3 168/1/3
f 170/2/3 165/2/3 164/2/3
f 170/2/3 166/2/3 165/2/3
f 171/1/3 167/1/3 166/1/3
f 171/2/3 166/2/3 170/2/3
f 172/2/3 162/2/3 167/2/3
f 172/1/3 167/1/3 171/1/3
f 173/1/3 168/1/3 162/1/3
f 173/2/3 162/2/3 172/2/3
f 174/2/3 169/2/3 168/2/3
f 174/1/3 168/1/3 173/1/3
f 175/1/3 158/1/3 169/1/3
f 175/2/3 169/2/3 174/2/3
f 176/1/3 158/1/3 175/1/3
f 179/4/3 178/4/3 177/4/3
f 180/4/3 178/4/3 179/4/3
f 181/4/3 179/4/3 177/4/3
f 182/4/3 179/4/3 181/4/3
f 183/1/4 184/1/4 188/1/4
f 184/2/4 185/2/4 189/2/4
f 188/1/4 184/1/4 189/1/4
f 189/2/4 185/2/4 190/2/4
f 185/1/4 186/1/4 191/1/4
f 190/2/4 185/2/4 191/2/4
f 186/2/4 187/2/4 192/2/4
f 191/1/4 186/1/4 192/1/4
f 192/2/4 187/2/4 193/2/4
f 183/1/4 188/1/4 194/1/4
f 189/2/4 190/2/4 195/2/4
f 194/1/4 188/1/4 195/1/4
f 188/2/4 189/2/4 195/2/4
f 190/1/4 191/1/4 196/1/4
f 195/2/4 190/2/4 196/2/4
f 192/1/4 193/1/4 196/1/4
f 191/1/4 192/1/4 196/1/4
f 196/1/4 193/1/4 197/1/4
f 197/1/4 193/1/4 198/1/4
f 183/1/4 194/1/4 200/1/4
f 194/2/4 195/2/4 201/2/4
f 200/1/4 194/1/4 201/1/4
f 195/1/4 196/1/4 202/1/4
f 201/2/4 195/2/4 202/2/4
f 196/1/4 197/1/4 202/1/4
f 197/2/4 198/2/4 203/2/4
f 202/1/4 197/1/4 203/1/4
f 198/1/4 199/1/4 204/1/4
f 203/2/4 198/2/4 204/2/4
f 204/1/4 199/1/4 205/1/4
f 206/4/4 207/4/4 208/4/4
f 208/4/4 207/4/4 209/4/4
f 206/4/4 208/4/4 213/4/4
f 208/3/4 209/3/4 214/3/4
f 212/4/4 213/4/4 214/4/4
f 213/4/4 208/4/4 214/4/4
f 209/4/4 207/4/4 215/4/4
f 214/3/4 209/3/4 215/3/4
f 210/4/4 211/4/4 216/4/4
f 216/4/4 211/4/4 217/4/4
f 215/4/4 207/4/4 218/4/4
f 214/4/4 215/4/4 218/4/4
f 218/4/4 207/4/4 219/4/4
f 210/4/4 216/4/4 220/4/4
f 216/3/4 217/3/4 221/3/4
f 220/4/4 216/4/4 221/4/4
f 217/4/4 211/4/4 222/4/4
f 221/3/4 217/3/4 222/3/4
f 211/3/4 212/3/4 223/3/4
f 222/4/4 211/4/4 223/4/4
f 212/4/4 214/4/4 224/4/4
f 223/3/4 212/3/4 224/3/4
f 214/4/4 218/4/4 224/4/4
f 218/3/4 219/3/4 225/3/4
f 224/4/4 218/4/4 225/4/4
f 225/3/4 219/3/4 226/3/4
f 227/4/4 228/4/4 231/4/4
f 228/3/4 229/3/4 231/3/4
f 229/4/4 230/4/4 232/4/4
f 231/3/4 229/3/4 232/3/4
f 232/4/4 230/4/4 233/4/4
f 233/4/4 230/4/4 234/4/4
f 231/4/4 232/4/4 235/4/4
f 232/4/4 233/4/4 235/4/4
f 235/4/4 233/4/4 236/4/4
f 233/3/4 234/3/4 237/3/4
f 236/4/4 233/4/4 237/4/4
f 234/4/4 230/4/4 238/4/4
f 237/3/4 234/3/4 238/3/4
f 235/3/4 236/3/4 239/3/4
f 231/4/4 235/4/4 239/4/4
f 236/4/4 237/4/4 240/4/4
f 239/3/4 236/3/4 240/3/4
f 237/4/4 238/4/4 240/4/4
f 227/4/4 231/4/4 241/4/4
f 231/4/4 239/4/4 241/4/4
f 239/4/4 240/4/4 241/4/4
f 240/4/4 238/4/4 242/4/4
f 241/4/4 240/4/4 242/4/4
f 238/4/4 230/4/4 242/4/4
f 247/2/5 244/2/5 243/2/5
f 248/1/5 245/1/5 244/1/5
f 248/2/5 244/2/5 247/2/5
f 249/2/5 246/2/5 245/2/5
f 249/1/5 245/1/5 248/1/5
f 250/2/5 246/2/5 249/2/5
f 251/1/5 248/1/5 247/1/5
f 251/1/5 249/1/5 248/1/5
f 251/1/5 250/1/5 249/1/5
f 252/1/5 250/1/5 251/1/5
f 255/4/5 254/4/5 253/4/5
f 256/4/5 255/4/5 253/4/5
f 259/4/5 256/4/5 253/4/5
f 259/4/5 258/4/5 257/4/5
f 259/4/5 257/4/5 256/4/5
f 260/4/5 258/4/5 259/4/5
f 264/4/5 262/4/5 261/4/5
f 264/3/5 263/3/5 262/3/5
f 265/3/5 263/3/5 264/3/5
f 266/4/5 265/4/5 264/4/5
f 266/3/5 263/3/5 265/3/5
f 267/3/5 263/3/5 266/3/5
f 268/4/5 264/4/5 261/4/5
f 268/4/5 266/4/5 264/4/5
f 268/4/5 267/4/5 266/4/5
f 269/4/5 267/4/5 268/4/5
f 270/4/5 268/4/5 261/4/5
f 271/4/5 268/4/5 270/4/5
f 273/4/5 267/4/5 269/4/5
f 274/4/5 273/4/5 272/4/5
f 275/4/5 267/4/5 273/4/5
f 275/4/5 273/4/5 274/4/5
f 276/4/6 277/4/6 278/4/6
f 276/4/6 278/4/6 280/4/6
f 278/4/6 279/4/6 280/4/6
f 280/4/6 279/4/6 281/4/6
f 282/4/6 283/4/6 285/4/6
f 285/4/6 283/4/6 286/4/6
f 283/3/6 284/3/6 287/3/6
f 286/4/6 283/4/6 287/4/6
f 287/3/6 284/3/6 288/3/6
f 282/4/6 285/4/6 289/4/6
f 289/4/6 285/4/6 290/4/6
f 285/3/6 286/3/6 291/3/6
f 290/4/6 285/4/6 291/4/6
f 286/4/6 287/4/6 292/4/6
f 291/3/6 286/3/6 292/3/6
f 287/4/6 288/4/6 292/4/6
f 289/3/6 290/3/6 293/3/6
f 290/4/6 291/4/6 293/4/6
f 291/4/6 292/4/6 293/4/6
f 293/4/6 292/4/6 294/4/6
f 294/4/6 292/4/6 295/4/6
f 292/4/6 288/4/6 296/4/6
f 295/4/6 292/4/6 296/4/6
f 282/4/6 289/4/6 297/4/6
f 289/3/6 293/3/6 297/3/6
f 293/3/6 294/3/6 297/3/6
f 297/3/6 294/3/6 298/3/6
f 294/4/6 295/4/6 299/4/6
f 295/3/6 296/3/6 299/3/6
f 299/3/6 296/3/6 300/3/6
f 299/4/6 300/4/6 301/4/6
f 300/3/6 296/3/6 301/3/6
f 296/4/6 288/4/6 302/4/6
f 301/3/6 296/3/6 302/3/6
f 302/4/6 288/4/6 303/4/6
f 303/4/6 288/4/6 304/4/6
f 298/3/6 294/3/6 305/3/6
f 297/4/6 298/4/6 305/4/6
f 299/4/6 301/4/6 306/4/6
f 305/3/6 294/3/6 306/3/6
f 294/4/6 299/4/6 306/4/6
f 302/4/6 303/4/6 306/4/6
f 301/4/6 302/4/6 306/4/6
f 297/4/6 305/4/6 307/4/6
f 282/4/6 297/4/6 307/4/6
f 305/4/6 306/4/6 307/4/6
f 306/4/6 303/4/6 308/4/6
f 307/4/6 306/4/6 308/4/6
f 303/3/6 304/3/6 308/3/6
f 308/3/6 304/3/6 309/3/6
